<?xml version="1.0" standalone="no"?>
<!DOCTYPE svg PUBLIC "-//W3C//DTD SVG 20010904//EN"
 "http://www.w3.org/TR/2001/REC-SVG-20010904/DTD/svg10.dtd">
<svg version="1.0" xmlns="http://www.w3.org/2000/svg"
 width="500.000000pt" height="500.000000pt" viewBox="0 0 500.000000 500.000000"
 preserveAspectRatio="xMidYMid meet">

<g transform="translate(0.000000,500.000000) scale(0.100000,-0.100000)"
fill="#000000" stroke="none">
<path d="M3387 4323 c-61 -35 -94 -60 -89 -65 6 -6 24 0 48 15 51 31 84 49 84
43 0 -12 -143 -86 -167 -86 -34 0 -51 -10 -66 -40 -7 -12 -37 -35 -67 -52 -30
-16 -118 -67 -195 -113 -77 -45 -150 -88 -162 -94 -23 -12 -39 -6 -128 48 -16
10 -49 29 -72 42 -23 13 -100 57 -170 98 -215 125 -214 125 -256 107 -23 -9
-38 -23 -42 -38 -9 -36 -1 -1221 8 -1239 7 -13 1 -18 -29 -24 -20 -3 -103 -45
-183 -92 -80 -47 -152 -86 -158 -86 -7 0 -13 -4 -13 -8 0 -5 -13 -15 -30 -24
-23 -12 -34 -13 -55 -3 -30 14 -47 2 -22 -16 15 -12 -6 -27 -180 -127 -108
-63 -230 -133 -271 -155 -83 -46 -107 -77 -97 -125 5 -21 17 -35 40 -46 19 -9
32 -19 30 -23 -2 -4 2 -7 9 -7 8 0 119 -61 247 -135 129 -75 250 -145 269
-156 19 -11 77 -44 127 -73 702 -408 795 -459 834 -459 43 0 105 30 424 208
176 98 201 109 207 93 8 -22 35 -34 44 -19 6 9 -7 23 -30 31 -18 6 5 27 29 27
13 0 28 6 32 14 13 21 263 157 276 150 7 -4 9 -4 6 0 -4 4 6 20 22 36 22 22
29 38 29 68 0 32 5 41 25 50 14 7 30 23 35 38 6 14 10 130 10 259 0 146 4 236
10 240 7 4 7 12 0 25 -13 24 -13 377 -1 382 11 4 111 139 111 150 0 5 -5 8
-11 8 -6 0 6 24 27 53 21 28 56 78 77 110 22 31 44 57 49 57 4 0 17 15 28 33
11 17 25 32 32 32 8 0 12 13 12 31 -1 24 -14 43 -54 80 -29 27 -58 48 -66 46
-7 -1 -15 2 -19 8 -3 5 1 10 9 10 19 0 20 9 2 32 -9 12 -16 14 -23 7 -8 -8
-20 12 -41 68 -16 43 -33 94 -37 113 -8 39 -31 70 -52 70 -17 0 -18 57 -1 62
8 3 15 31 18 69 8 104 -21 164 -100 204 -28 14 -50 28 -50 31 0 3 5 2 10 -1 6
-3 10 0 10 8 0 7 -11 19 -24 25 -20 9 -25 8 -28 -4 -3 -13 -5 -13 -23 1 -16
12 -17 14 -2 9 23 -8 22 8 -3 29 -11 9 -20 15 -20 12 0 -3 -15 4 -32 15 -18
11 -40 20 -48 19 -8 0 -59 -26 -113 -56z m133 26 c12 -9 12 -10 -3 -5 -10 3
-28 1 -40 -5 -21 -10 -21 -10 -3 5 23 19 26 19 46 5z m60 -35 c0 -2 -9 0 -20
6 -11 6 -20 13 -20 16 0 2 9 0 20 -6 11 -6 20 -13 20 -16z m-120 -27 c-122
-73 -152 -89 -149 -78 5 14 169 110 189 111 8 0 -10 -15 -40 -33z m162 -28
l89 -51 -350 -204 -351 -204 -90 52 c-50 28 -89 52 -88 54 2 1 89 52 195 113
140 81 201 111 225 111 37 0 58 15 58 39 0 10 45 42 108 78 59 34 109 63 111
63 2 0 44 -23 93 -51z m-348 -55 c22 -9 10 -24 -20 -24 -23 0 -31 10 -17 23 8
9 17 9 37 1z m-1044 -14 c0 -5 -7 -10 -15 -10 -8 0 -15 5 -15 10 0 6 7 10 15
10 8 0 15 -4 15 -10z m1513 -10 c-4 -4 -123 -74 -263 -155 -140 -82 -293 -170
-339 -197 -47 -27 -91 -46 -99 -43 -20 8 -32 0 313 200 160 92 308 178 329
191 35 20 80 23 59 4z m-1503 -39 c96 -56 313 -181 412 -237 48 -27 88 -55 88
-61 0 -7 -2 -13 -4 -13 -2 0 -75 41 -163 92 -317 183 -403 229 -413 223 -16
-10 -14 -1106 3 -1127 12 -17 128 -85 470 -278 26 -14 44 -30 40 -35 -5 -4 -3
-5 4 -1 7 4 29 -4 50 -18 21 -13 108 -64 193 -113 85 -50 277 -160 426 -246
149 -87 278 -157 287 -157 16 0 17 42 17 559 0 455 -3 562 -13 573 -8 7 -89
56 -180 108 -157 90 -185 110 -153 110 12 0 255 -136 266 -149 3 -3 22 -14 42
-25 70 -35 68 -16 68 -674 0 -479 -2 -592 -13 -601 -10 -8 -27 -2 -71 24 -31
19 -90 53 -129 75 -40 22 -79 45 -87 50 -8 6 -145 85 -305 177 -261 149 -337
194 -385 223 -17 10 -385 221 -440 252 -84 48 -99 60 -114 98 -14 35 -16 112
-16 618 0 598 1 611 40 597 8 -3 44 -23 80 -44z m54 18 c20 -12 33 -25 30 -30
-6 -10 -84 30 -84 43 0 13 17 9 54 -13z m1476 2 c0 -7 -662 -393 -702 -409 -4
-2 -8 0 -8 5 0 4 73 51 163 102 89 52 245 143 347 203 102 59 188 108 193 108
4 0 7 -4 7 -9z m-560 -15 c0 -2 -75 -48 -167 -101 -93 -54 -183 -107 -202
-118 -19 -11 -32 -15 -30 -9 4 11 376 231 392 232 4 0 7 -2 7 -4z m-682 -123
c195 -113 219 -129 211 -137 -5 -6 -381 204 -403 225 -6 6 -3 9 7 9 9 0 93
-44 185 -97z m-111 -39 c92 -54 203 -117 246 -142 67 -38 77 -48 77 -72 0 -47
26 -58 83 -35 15 6 17 0 17 -64 0 -93 15 -120 87 -159 32 -18 81 -45 108 -62
59 -35 80 -36 119 -11 17 11 33 18 38 15 4 -3 8 -1 8 3 0 5 13 16 28 25 l29
17 184 -107 184 -107 3 -537 2 -537 -157 91 c-87 50 -212 122 -278 160 -66 39
-144 83 -173 99 -28 16 -70 40 -92 54 -22 14 -42 25 -45 25 -3 0 -24 12 -48
27 -40 26 -112 67 -207 121 -25 14 -112 64 -195 112 -82 48 -170 99 -195 113
l-45 25 -3 536 -2 537 29 -16 c16 -8 105 -58 198 -111z m1223 -23 c0 -6 -4
-13 -10 -16 -5 -3 -10 1 -10 9 0 9 5 16 10 16 6 0 10 -4 10 -9z m-66 -36 c-4
-8 -10 -15 -15 -15 -4 0 -6 7 -3 15 4 8 10 15 15 15 4 0 6 -7 3 -15z m-784
-35 c-9 -6 -17 -32 -21 -72 l-6 -63 -1 66 c-2 69 1 79 27 79 14 0 14 -1 1 -10z
m715 -9 c-3 -6 -11 -11 -17 -11 -6 0 -6 6 2 15 14 17 26 13 15 -4z m240 -1
c-3 -5 -10 -10 -16 -10 -5 0 -9 5 -9 10 0 6 7 10 16 10 8 0 12 -4 9 -10z m-54
-53 c-20 -31 -41 -47 -41 -30 0 18 41 74 51 68 6 -4 3 -18 -10 -38z m104 5
c-3 -3 -11 0 -18 7 -9 10 -8 11 6 5 10 -3 15 -9 12 -12z m12 -34 c-3 -8 -6 -5
-6 6 -1 11 2 17 5 13 3 -3 4 -12 1 -19z m-147 -39 c0 -11 -4 -17 -10 -14 -5 3
-10 13 -10 21 0 8 5 14 10 14 6 0 10 -9 10 -21z m-748 -191 c18 -16 27 -28 20
-28 -7 0 -24 11 -37 25 -23 22 -25 30 -23 117 l2 93 3 -90 c3 -87 4 -91 35
-117z m76 164 c-41 -8 -27 -96 19 -117 20 -8 38 -43 28 -53 -2 -2 -17 5 -33
17 -17 12 -35 21 -40 21 -16 0 -22 27 -22 101 l0 70 33 -18 c24 -13 28 -18 15
-21z m672 -12 c0 -5 -2 -10 -4 -10 -3 0 -8 5 -11 10 -3 6 -1 10 4 10 6 0 11
-4 11 -10z m70 4 c0 -8 -19 -13 -24 -6 -3 5 1 9 9 9 8 0 15 -2 15 -3z m-7 -73
c26 -13 60 -39 77 -59 38 -47 90 -144 90 -171 0 -18 -100 -173 -136 -211 -12
-12 -14 -8 -15 33 -2 61 -1 56 -25 97 -16 27 -53 53 -160 114 -76 43 -150 85
-163 93 l-23 15 38 22 c22 13 79 46 128 74 89 51 89 51 115 33 14 -10 47 -28
74 -40z m-703 19 c0 -5 -4 -10 -10 -10 -5 0 -10 5 -10 10 0 6 5 10 10 10 6 0
10 -4 10 -10z m970 -125 c13 -14 21 -25 18 -25 -2 0 -15 11 -28 25 -13 14 -21
25 -18 25 2 0 15 -11 28 -25z m-880 -46 l0 -60 -58 33 c-84 47 -118 75 -46 37
72 -39 94 -35 94 16 0 19 2 35 5 35 3 0 5 -27 5 -61z m294 19 c52 -31 69 -48
47 -48 -14 0 -121 64 -121 73 0 13 18 7 74 -25z m500 -34 c3 -8 2 -12 -4 -9
-6 3 -10 10 -10 16 0 14 7 11 14 -7z m153 -26 c-3 -8 -6 -5 -6 6 -1 11 2 17 5
13 3 -3 4 -12 1 -19z m-462 -52 c31 -19 52 -37 47 -40 -12 -7 -172 85 -166 96
6 9 34 -5 119 -56z m423 39 c-3 -3 -9 2 -12 12 -6 14 -5 15 5 6 7 -7 10 -15 7
-18z m-88 -26 c0 -6 -4 -7 -10 -4 -5 3 -10 11 -10 16 0 6 5 7 10 4 6 -3 10
-11 10 -16z m55 -9 c3 -5 -1 -10 -9 -10 -9 0 -16 5 -16 10 0 6 4 10 9 10 6 0
13 -4 16 -10z m-291 -72 c5 -9 7 -20 3 -24 -8 -8 -47 24 -47 38 0 15 32 5 44
-14z m-1419 -505 c66 -39 197 -114 290 -168 336 -193 762 -439 840 -485 44
-26 115 -67 158 -91 74 -41 94 -67 67 -84 -8 -5 -7 -12 2 -23 12 -15 11 -16
-4 -4 -15 12 -42 -1 -207 -97 -437 -254 -568 -329 -597 -344 -23 -12 -31 -22
-29 -39 1 -13 0 -15 -2 -5 -6 22 -4 22 -66 -13 -61 -34 -112 -38 -160 -14 -18
10 -147 83 -287 164 -140 81 -412 239 -605 350 -546 315 -575 332 -575 344 1
26 -19 14 743 453 109 63 208 118 220 124 41 17 92 1 212 -68z m-1000 -651
c-3 -3 -11 0 -18 7 -9 10 -8 11 6 5 10 -3 15 -9 12 -12z m50 -22 c3 -6 -1 -7
-9 -4 -18 7 -21 14 -7 14 6 0 13 -4 16 -10z m170 -103 c6 -5 -17 5 -50 23 -33
18 -64 38 -70 43 -5 6 17 -4 50 -22 33 -18 65 -38 70 -44z m2225 59 c0 -3 -4
-8 -10 -11 -5 -3 -10 -1 -10 4 0 6 5 11 10 11 6 0 10 -2 10 -4z m-2170 -92 c0
-2 -9 0 -20 6 -11 6 -20 13 -20 16 0 2 9 0 20 -6 11 -6 20 -13 20 -16z m70
-40 c0 -2 -13 2 -30 11 -16 9 -30 18 -30 21 0 2 14 -2 30 -11 17 -9 30 -18 30
-21z m67 -34 c26 -16 43 -30 37 -30 -5 0 -29 14 -54 30 -59 39 -45 39 17 0z
m1940 -12 c-3 -8 -6 -5 -6 6 -1 11 2 17 5 13 3 -3 4 -12 1 -19z m-75 -40 c-6
-6 -7 0 -4 19 5 21 7 23 10 9 2 -10 0 -22 -6 -28z m-1772 -4 c0 -2 -9 0 -20 6
-11 6 -20 13 -20 16 0 2 9 0 20 -6 11 -6 20 -13 20 -16z m115 -67 c16 -15 -68
29 -90 48 -11 9 3 4 30 -11 28 -15 55 -32 60 -37z m1565 39 c0 -14 -36 -46
-52 -46 -11 0 -10 28 2 35 6 4 7 -1 3 -11 -5 -14 -3 -15 15 -5 12 7 22 16 22
22 0 6 -5 7 -12 3 -7 -4 -8 -3 -4 4 10 17 26 15 26 -2z m-90 -55 c0 -10 -6
-21 -14 -24 -11 -4 -11 -1 -2 19 13 29 16 30 16 5z m-1292 -86 c45 -26 82 -50
82 -52 0 -5 -28 10 -147 79 -57 33 -103 62 -103 65 0 3 19 -6 43 -20 23 -13
79 -46 125 -72z m1259 77 c-10 -10 -14 -22 -10 -25 3 -4 1 -7 -5 -7 -17 0 -15
16 4 34 22 22 31 20 11 -2z m-977 -244 c0 -7 -126 64 -138 78 -4 4 26 -11 65
-32 40 -21 73 -42 73 -46z m146 -85 c-4 -5 -95 47 -101 58 -3 4 19 -6 49 -23
31 -18 54 -33 52 -35z m49 -23 c3 -5 2 -10 -4 -10 -5 0 -13 5 -16 10 -3 6 -2
10 4 10 5 0 13 -4 16 -10z m75 -30 c0 -5 -4 -10 -10 -10 -5 0 -10 5 -10 10 0
6 5 10 10 10 6 0 10 -4 10 -10z"/>
<path d="M2806 2601 c-12 -19 7 -41 62 -73 99 -57 112 -62 124 -50 19 19 1 38
-81 86 -83 48 -96 52 -105 37z m160 -98 c-6 -6 -136 69 -136 78 0 4 32 -11 70
-33 39 -23 69 -43 66 -45z"/>
<path d="M2304 3924 c3 -9 6 -17 6 -20 0 -2 6 -1 14 2 20 8 41 -33 27 -50 -8
-10 -7 -17 3 -25 18 -15 23 -5 20 37 -3 50 -3 52 -17 46 -8 -3 -20 2 -27 11
-16 20 -34 19 -26 -1z"/>
<path d="M2263 3913 c-10 -4 -10 -10 -2 -25 7 -14 14 -17 21 -10 13 13 -3 41
-19 35z"/>
<path d="M2305 3880 c-10 -17 12 -37 25 -24 8 8 6 15 -4 23 -10 9 -16 9 -21 1z"/>
<path d="M2395 3881 c-9 -16 5 -33 22 -27 9 4 17 -1 20 -14 7 -26 28 -20 29 7
1 14 -3 20 -13 16 -7 -3 -22 2 -32 11 -13 12 -21 14 -26 7z"/>
<path d="M2395 3830 c-7 -12 2 -30 16 -30 12 0 12 27 0 35 -5 3 -12 1 -16 -5z"/>
<path d="M2485 3830 c-10 -17 12 -37 25 -24 8 8 6 15 -4 23 -10 9 -16 9 -21 1z"/>
<path d="M2436 3802 c-2 -4 -1 -14 4 -21 10 -17 31 -5 23 14 -6 16 -19 20 -27
7z"/>
<path d="M2578 3783 c-7 -11 -3 -82 5 -89 14 -14 26 8 14 27 -10 16 -9 21 3
29 13 8 13 11 -1 26 -9 9 -19 12 -21 7z"/>
<path d="M2526 3751 c-7 -10 18 -34 27 -25 7 8 -3 34 -13 34 -5 0 -11 -4 -14
-9z"/>
<path d="M2617 3753 c-11 -10 13 -32 29 -26 11 4 12 9 3 19 -13 15 -22 18 -32
7z"/>
<path d="M2414 3615 c-14 -14 -29 -25 -34 -25 -5 0 -15 -10 -21 -22 -7 -13
-20 -29 -31 -36 -10 -7 -18 -19 -18 -27 0 -8 -10 -33 -21 -55 -18 -34 -20 -50
-14 -103 13 -119 27 -154 86 -214 32 -32 80 -67 117 -85 35 -17 71 -42 80 -56
9 -14 29 -33 45 -42 16 -10 65 -53 110 -96 60 -57 96 -84 132 -97 78 -27 101
-23 121 19 10 20 17 42 17 50 0 12 3 12 16 0 45 -38 146 -40 156 -2 3 11 10
37 16 56 16 53 -13 205 -52 278 -43 81 -70 124 -101 161 -16 18 -28 36 -28 40
0 11 -99 111 -110 111 -6 0 -10 4 -10 9 0 5 -9 13 -20 16 -11 4 -18 11 -15 16
3 5 0 6 -8 3 -8 -3 -19 2 -26 10 -7 8 -28 20 -47 26 -19 6 -34 16 -34 21 0 5
-24 21 -52 35 -41 20 -72 27 -141 30 -83 4 -89 3 -113 -21z m215 -16 c30 -10
64 -27 75 -36 12 -10 43 -29 69 -43 170 -87 347 -333 377 -523 11 -63 10 -86
0 -120 -7 -23 -14 -47 -16 -54 -6 -22 -90 -8 -124 21 -41 34 -53 33 -45 -4 4
-17 2 -35 -5 -42 -6 -7 -17 -22 -24 -32 -12 -18 -14 -18 -62 -1 -27 10 -58 25
-69 32 -22 14 -155 134 -221 200 -23 23 -68 53 -98 67 -61 28 -139 94 -161
137 -8 15 -20 67 -26 115 -12 87 -11 90 15 147 14 32 33 60 41 63 8 4 15 11
15 17 0 6 16 25 35 43 31 27 42 31 102 32 43 0 87 -6 122 -19z"/>
<path d="M2554 3550 c5 -28 4 -30 -14 -20 -11 6 -20 7 -20 1 0 -5 -8 -8 -17
-7 -14 1 -17 -7 -14 -42 l3 -44 -27 18 c-14 9 -24 23 -21 30 8 20 -4 44 -21
44 -32 0 8 -88 40 -90 5 0 6 -4 2 -9 -3 -5 -1 -12 5 -16 5 -3 10 -1 10 6 0 7
3 9 7 5 5 -4 1 -13 -8 -20 -9 -6 -19 -20 -22 -31 -4 -11 -5 -6 -3 10 4 24 -3
36 -32 63 -19 18 -38 29 -42 25 -4 -4 -5 -30 -2 -56 3 -39 9 -51 28 -59 13 -6
21 -15 18 -20 -3 -4 -10 -6 -15 -3 -5 4 -9 1 -9 -5 0 -7 -6 -8 -19 -1 -13 7
-17 18 -14 34 5 26 -6 40 -24 29 -7 -5 -5 -20 9 -49 11 -24 24 -40 29 -37 5 3
9 -6 9 -20 0 -23 -9 -31 -33 -27 -13 2 -20 -30 -9 -41 8 -8 13 -7 18 5 12 31
27 18 21 -17 -3 -22 -1 -39 7 -45 19 -16 23 -5 18 48 -4 43 -2 50 16 55 25 8
77 -16 86 -39 3 -9 6 -29 6 -45 0 -20 6 -31 21 -35 16 -5 19 -12 15 -31 -5
-18 -3 -22 9 -18 8 4 15 2 15 -4 0 -23 -30 -3 -65 42 -27 35 -35 54 -31 72 6
24 -5 36 -36 41 -14 2 -18 -4 -18 -26 0 -17 5 -33 10 -36 6 -4 9 -23 8 -43 -2
-28 1 -37 12 -37 15 0 16 7 5 38 -15 36 26 5 52 -42 15 -25 28 -47 29 -49 1
-2 12 3 23 10 17 10 20 19 15 41 -5 24 -2 29 30 42 32 13 35 18 24 34 -12 20
-38 17 -38 -4 0 -8 -4 -17 -10 -20 -6 -4 -10 8 -10 29 0 26 4 36 16 36 8 0 13
-4 10 -9 -4 -5 3 -7 14 -4 11 3 20 13 21 22 0 9 2 27 5 40 3 18 1 22 -12 17
-21 -8 -54 11 -54 32 0 10 8 18 18 18 9 1 25 4 35 9 14 6 18 1 23 -24 4 -17
10 -28 15 -25 5 3 7 9 4 14 -3 5 -1 11 4 15 6 3 15 -4 21 -15 6 -11 15 -18 21
-15 5 4 9 1 9 -5 0 -7 5 -6 14 2 8 7 12 16 9 20 -2 4 3 5 11 2 9 -3 16 -17 16
-30 0 -13 5 -24 11 -24 8 0 7 -5 -2 -16 -11 -14 -10 -16 6 -14 31 4 45 1 45
-9 0 -5 -9 -7 -20 -4 -18 5 -20 0 -20 -41 0 -25 5 -46 10 -46 6 0 10 11 10 25
0 14 5 25 10 25 6 0 10 -13 10 -30 0 -23 -5 -31 -24 -36 -17 -4 -22 -11 -19
-25 4 -13 -2 -21 -22 -29 -15 -6 -31 -8 -36 -4 -36 22 -24 -44 14 -78 11 -11
14 -18 7 -18 -21 0 -60 53 -59 80 1 37 14 66 23 52 9 -15 26 -15 26 0 0 6 -3
8 -7 4 -4 -3 -21 7 -38 24 l-32 31 -36 -21 c-30 -18 -36 -27 -39 -64 -1 -24 0
-42 4 -40 4 2 9 0 13 -6 3 -5 1 -10 -5 -10 -6 0 -8 -5 -5 -10 14 -22 22 2 17
46 -4 41 -2 49 19 65 29 23 39 24 39 4 0 -8 -4 -15 -10 -15 -15 0 -12 -64 5
-96 8 -16 25 -36 37 -46 18 -13 20 -20 11 -29 -14 -14 -6 -39 14 -39 11 0 13
7 9 23 -4 19 0 24 30 33 l35 11 -3 -63 c-3 -63 3 -81 20 -70 6 3 8 32 5 67 -6
59 -5 61 14 50 22 -11 38 -69 29 -99 -8 -24 10 -50 24 -36 8 8 8 19 0 38 -5
15 -10 41 -10 57 0 16 -4 29 -10 29 -5 0 -10 5 -10 11 0 5 5 7 10 4 6 -3 10
-4 10 0 0 3 -12 10 -26 15 -25 10 -25 30 1 30 28 0 65 -24 65 -41 0 -21 35
-43 56 -35 17 6 74 -19 74 -33 0 -5 9 -11 19 -14 16 -4 18 -1 12 17 -5 11 -17
23 -27 25 -10 2 -29 10 -42 19 -20 13 -21 17 -8 24 9 5 21 6 26 3 6 -4 26 -1
45 5 30 10 33 14 25 30 -6 11 -17 17 -25 14 -8 -4 -12 -10 -9 -15 9 -15 -25
-22 -41 -9 -24 20 -19 55 7 57 17 2 19 0 8 -7 -8 -5 -11 -12 -7 -16 4 -4 12
-3 19 4 8 8 8 15 -2 26 -7 9 -16 14 -20 11 -4 -2 -15 2 -25 9 -17 12 -15 14
23 21 25 4 42 12 42 20 0 25 -21 27 -44 6 -26 -25 -36 -19 -36 21 0 23 4 28
26 28 21 0 25 4 22 23 -2 12 -9 21 -17 19 -8 -2 -21 0 -29 3 -11 4 -12 8 -2
20 16 20 5 45 -20 45 -14 0 -27 15 -45 51 -15 28 -31 48 -38 46 -7 -3 -11 -10
-10 -16 2 -6 -2 -11 -8 -11 -19 0 -37 -27 -42 -61 -3 -25 -4 -21 -5 18 -2 41
1 51 12 47 19 -7 28 66 11 84 -11 12 -16 9 -31 -16 -14 -25 -21 -29 -36 -21
-14 8 -18 20 -16 57 2 38 0 46 -12 43 -8 -2 -19 -4 -25 -5 -5 -1 -15 -5 -21
-9 -8 -4 -18 8 -28 33 -9 22 -23 40 -31 40 -17 0 -20 -16 -5 -25 6 -3 10 -22
10 -42 0 -27 -3 -34 -15 -29 -12 4 -15 -4 -15 -43 0 -51 -21 -74 -44 -51 -8 8
-6 9 5 5 13 -5 17 3 22 37 6 47 3 58 -20 58 -11 0 -13 -5 -8 -17 15 -36 18
-66 6 -59 -6 4 -11 14 -11 23 0 9 -11 26 -25 39 -14 13 -25 27 -25 33 0 10 60
8 77 -2 13 -8 24 18 17 38 -7 17 -20 20 -29 5 -3 -5 2 -10 11 -10 10 0 15 -3
11 -6 -10 -10 -47 7 -47 22 0 8 5 14 10 14 12 0 9 22 -5 32 -20 15 -27 7 -21
-22z m116 -20 c0 -5 -2 -10 -4 -10 -3 0 -8 5 -11 10 -3 6 -1 10 4 10 6 0 11
-4 11 -10z m-235 -20 c3 -5 1 -10 -4 -10 -6 0 -11 5 -11 10 0 6 2 10 4 10 3 0
8 -4 11 -10z m285 -132 c0 -5 -6 -16 -14 -23 -12 -12 -16 -12 -27 1 -7 8 -18
13 -26 10 -9 -4 -13 5 -13 34 0 31 3 38 15 34 12 -5 15 2 15 32 l1 39 24 -59
c14 -33 25 -63 25 -68z m14 83 c-10 -10 -21 -16 -24 -14 -3 3 4 11 14 19 28
20 33 17 10 -5z m-339 -1 c3 -5 1 -10 -4 -10 -6 0 -11 5 -11 10 0 6 2 10 4 10
3 0 8 -4 11 -10z m126 -23 c-10 -9 -11 -8 -5 6 3 10 9 15 12 12 3 -3 0 -11 -7
-18z m239 -4 c0 -20 -3 -24 -11 -16 -7 7 -9 19 -6 27 10 24 17 19 17 -11z
m-330 -40 c0 -30 -2 -34 -15 -23 -8 7 -15 25 -15 41 0 21 4 27 15 23 9 -4 15
-19 15 -41z m135 26 c12 -19 -5 -23 -22 -6 -16 16 -16 17 -1 17 9 0 20 -5 23
-11z m290 1 c3 -5 1 -10 -4 -10 -6 0 -11 5 -11 10 0 6 2 10 4 10 3 0 8 -4 11
-10z m-309 -60 c13 -7 24 -22 24 -33 0 -18 -2 -18 -24 -4 -13 9 -34 13 -47 11
-22 -5 -23 -4 -6 9 9 8 18 27 18 43 1 21 3 23 6 8 2 -12 15 -27 29 -34z m204
29 c0 -6 -4 -7 -10 -4 -5 3 -10 11 -10 16 0 6 5 7 10 4 6 -3 10 -11 10 -16z
m-180 -15 c0 -2 -9 0 -20 6 -11 6 -20 13 -20 16 0 2 9 0 20 -6 11 -6 20 -13
20 -16z m239 -58 c-1 -28 -4 -39 -6 -25 -2 16 -14 31 -29 37 -28 13 -32 39 -6
44 34 8 42 -3 41 -56z m-339 5 c0 -6 -4 -13 -10 -16 -5 -3 -10 1 -10 9 0 9 5
16 10 16 6 0 10 -4 10 -9z m433 -29 c-18 -8 -34 -25 -36 -36 -2 -12 -5 -4 -6
16 -1 44 21 63 53 46 19 -10 19 -12 -11 -26z m-333 -28 c0 -20 -4 -25 -17 -20
-9 4 -21 1 -26 -6 -6 -9 -7 -8 -3 5 3 10 6 30 6 43 0 22 3 23 20 14 12 -6 20
-21 20 -36z m-50 15 c0 -22 -17 -24 -43 -5 -19 14 -12 21 24 23 13 1 19 -5 19
-18z m108 -38 c3 -8 -4 -12 -19 -9 -17 2 -25 11 -27 27 -4 24 -3 24 19 9 13
-8 25 -20 27 -27z m319 17 c37 -42 37 -53 1 -25 -33 24 -58 34 -58 23 0 -18
15 -36 32 -36 28 0 68 -48 68 -81 0 -21 -4 -27 -15 -23 -9 4 -15 19 -15 35 0
21 -5 29 -17 29 -15 0 -16 2 -3 10 8 5 12 10 8 11 -67 12 -90 45 -50 68 24 14
26 14 49 -11z m-27 -18 c0 -5 -2 -10 -4 -10 -3 0 -8 5 -11 10 -3 6 -1 10 4 10
6 0 11 -4 11 -10z m-440 -21 c0 -6 -4 -7 -10 -4 -5 3 -10 -1 -10 -10 0 -9 -4
-13 -10 -10 -17 11 -11 31 10 32 11 1 20 -3 20 -8z m87 -32 c2 -34 0 -36 -17
-27 -13 7 -18 19 -16 38 5 35 4 34 19 30 6 -3 13 -21 14 -41z m300 11 c-3 -8
-6 -5 -6 6 -1 11 2 17 5 13 3 -3 4 -12 1 -19z m47 -20 c-10 -16 -34 -7 -34 12
0 17 3 19 19 8 11 -7 17 -16 15 -20z m-504 -8 c0 -5 -2 -10 -4 -10 -3 0 -8 5
-11 10 -3 6 -1 10 4 10 6 0 11 -4 11 -10z m220 0 c0 -5 -2 -10 -4 -10 -3 0 -8
5 -11 10 -3 6 -1 10 4 10 6 0 11 -4 11 -10z m242 -18 c-7 -2 -12 -17 -12 -33
0 -16 -3 -29 -8 -29 -4 0 -6 18 -4 39 3 31 7 38 20 33 10 -4 12 -7 4 -10z m78
-8 c0 -14 -3 -15 -17 -3 -10 7 -20 15 -22 16 -2 2 5 3 17 3 14 0 22 -6 22 -16z
m-44 -50 c-4 -47 -4 -47 49 -90 15 -12 13 -12 -10 2 -66 39 -74 48 -75 85 0
38 6 49 27 49 10 0 12 -12 9 -46z m80 -6 c4 -5 2 -8 -4 -8 -7 0 -12 -13 -12
-30 0 -33 -6 -36 -34 -15 -15 12 -17 17 -7 29 7 8 10 19 8 24 -7 10 38 10 49
0z m-124 -56 c-6 -2 -12 -10 -12 -18 0 -28 -16 -13 -18 16 -2 29 -1 30 20 19
14 -8 18 -14 10 -17z m135 -19 c-3 -10 -5 -2 -5 17 0 19 2 27 5 18 2 -10 2
-26 0 -35z m-187 10 c0 -24 -4 -28 -29 -28 -16 0 -32 3 -36 7 -12 11 24 41 41
34 8 -3 12 -2 9 4 -3 6 -1 10 4 10 6 0 11 -12 11 -27z m153 -69 c-4 -10 0 -13
13 -8 15 5 16 4 5 -4 -19 -14 -41 -4 -41 19 0 20 -47 49 -67 42 -7 -3 -13 0
-13 7 0 6 5 8 10 5 6 -3 10 -2 10 4 0 6 20 -3 45 -20 29 -19 42 -35 38 -45z
m-163 22 c0 -3 -4 -8 -10 -11 -5 -3 -10 -1 -10 4 0 6 5 11 10 11 6 0 10 -2 10
-4z m30 -136 c0 -5 -2 -10 -4 -10 -3 0 -8 5 -11 10 -3 6 -1 10 4 10 6 0 11 -4
11 -10z"/>
<path d="M2685 3229 c-18 -34 -14 -62 8 -54 7 3 23 -6 35 -20 32 -37 42 -31
42 25 0 54 -20 71 -21 18 0 -31 -1 -30 -15 15 -8 26 -19 47 -24 47 -5 0 -17
-14 -25 -31z"/>
<path d="M3352 3296 c1 -10 8 -17 13 -17 15 1 12 24 -3 29 -9 3 -13 -2 -10
-12z"/>
<path d="M3306 3282 c-8 -14 4 -43 16 -36 5 3 18 -2 29 -12 22 -19 33 -15 23
10 -3 9 -11 13 -16 10 -6 -4 -18 3 -28 16 -10 14 -20 19 -24 12z"/>
<path d="M3396 3282 c-9 -14 1 -32 16 -32 6 0 20 -7 30 -17 21 -19 31 -14 22
11 -3 9 -12 15 -20 14 -7 -2 -19 6 -27 16 -10 13 -16 15 -21 8z"/>
<path d="M3256 3251 c-6 -10 22 -37 29 -29 8 7 -5 38 -15 38 -5 0 -11 -4 -14
-9z"/>
<path d="M3216 3231 c-4 -6 -3 -18 2 -27 6 -11 11 -13 16 -5 4 6 3 18 -2 27
-6 11 -11 13 -16 5z"/>
<path d="M3300 3223 c0 -17 18 -35 28 -29 12 7 38 -32 28 -41 -3 -4 -15 2 -26
12 -23 21 -34 16 -24 -9 4 -9 13 -15 20 -12 8 3 18 -4 24 -15 16 -29 27 -16
24 28 -3 54 -3 53 -17 47 -8 -3 -20 2 -27 11 -13 16 -30 20 -30 8z"/>
<path d="M3397 3224 c-10 -10 4 -33 18 -28 7 3 20 -4 28 -16 8 -12 18 -17 21
-12 10 16 -4 41 -20 35 -7 -3 -17 2 -20 11 -6 17 -16 20 -27 10z"/>
<path d="M3255 3194 c-11 -8 -15 -13 -8 -10 6 4 16 -1 21 -10 6 -11 11 -13 16
-5 4 6 3 18 -1 26 -8 14 -11 13 -28 -1z"/>
<path d="M3395 3171 c-9 -15 3 -31 19 -25 7 3 19 -2 26 -11 14 -17 30 -20 30
-5 0 6 -8 13 -17 17 -10 3 -25 12 -35 20 -11 10 -18 11 -23 4z"/>
<path d="M3487 3173 c-9 -14 8 -33 21 -24 10 6 10 10 -2 20 -8 7 -17 8 -19 4z"/>
<path d="M3250 3141 c0 -5 6 -14 14 -20 16 -13 32 2 21 19 -8 12 -35 13 -35 1z"/>
<path d="M3305 3121 c-9 -16 5 -33 21 -27 7 3 18 -4 24 -15 6 -11 15 -17 21
-14 15 10 11 25 -8 32 -10 3 -25 12 -35 20 -11 10 -18 11 -23 4z"/>
<path d="M3397 3124 c-9 -10 4 -34 19 -34 16 0 16 2 8 24 -6 17 -16 20 -27 10z"/>
<path d="M3484 3114 c3 -9 6 -18 6 -20 0 -2 7 -4 15 -4 18 0 19 12 3 28 -17
17 -31 15 -24 -4z"/>
<path d="M3442 3083 c2 -10 9 -18 16 -18 8 0 19 -8 26 -17 7 -10 16 -15 19
-11 4 3 15 -2 26 -11 10 -10 21 -13 24 -9 8 13 -9 37 -21 29 -6 -4 -16 2 -22
13 -6 11 -16 18 -24 15 -7 -3 -16 2 -19 10 -9 22 -29 20 -25 -1z"/>
<path d="M3532 3086 c1 -10 8 -17 13 -17 15 1 12 24 -3 29 -9 3 -13 -2 -10
-12z"/>
<path d="M3396 3072 c-8 -14 4 -43 16 -36 5 3 18 -2 28 -11 10 -9 20 -12 23
-8 8 12 -8 35 -21 31 -6 -2 -17 6 -25 16 -9 12 -16 15 -21 8z"/>
<path d="M3352 3041 c-10 -6 -10 -10 2 -20 10 -9 16 -9 21 -1 10 16 -7 31 -23
21z"/>
<path d="M3390 3010 c0 -6 8 -13 18 -17 9 -3 25 -13 35 -21 20 -17 30 -12 21
11 -3 9 -12 13 -20 10 -7 -3 -17 2 -20 11 -7 18 -34 22 -34 6z"/>
<path d="M3484 3004 c3 -9 6 -17 6 -20 0 -2 6 -1 14 2 18 7 9 34 -11 34 -10 0
-13 -6 -9 -16z"/>
<path d="M3535 2991 c-3 -6 -3 -20 0 -31 7 -23 -13 -28 -21 -5 -6 15 -34 21
-34 8 0 -17 18 -35 28 -29 5 3 15 -1 22 -9 20 -25 27 -17 25 25 -2 44 -9 58
-20 41z"/>
<path d="M3442 2920 c7 -11 16 -16 21 -11 12 12 0 31 -19 31 -12 0 -12 -3 -2
-20z"/>
<path d="M3489 2919 c-1 -7 -1 -123 0 -136 1 -7 7 -10 14 -7 19 7 52 -32 36
-42 -7 -4 -17 0 -24 9 -16 22 -39 22 -31 1 3 -9 6 -17 6 -20 0 -2 6 -1 13 2 8
3 20 -2 27 -11 24 -30 31 -10 21 67 -1 4 -7 5 -15 2 -19 -7 -42 34 -28 48 7 7
14 3 21 -11 14 -24 31 -28 31 -6 0 9 -11 20 -24 25 -31 11 -41 27 -27 44 8 10
7 17 -4 26 -8 7 -15 11 -16 9z"/>
<path d="M3535 2888 c-9 -22 4 -43 17 -30 7 7 7 16 0 29 -10 17 -11 17 -17 1z"/>
<path d="M3442 2876 c1 -10 8 -17 13 -17 15 1 12 24 -3 29 -9 3 -13 -2 -10
-12z"/>
<path d="M3442 2826 c1 -10 8 -17 13 -17 15 1 12 24 -3 29 -9 3 -13 -2 -10
-12z"/>
<path d="M3440 2776 c0 -17 14 -29 23 -20 8 8 -3 34 -14 34 -5 0 -9 -6 -9 -14z"/>
<path d="M3447 2733 c-12 -12 -7 -33 8 -33 17 0 19 9 7 28 -5 7 -11 9 -15 5z"/>
<path d="M3485 2670 c3 -46 10 -59 26 -43 7 7 6 15 -5 26 -13 13 -14 16 -1 21
9 3 19 -3 26 -15 7 -13 14 -18 20 -12 14 14 0 43 -17 36 -7 -3 -17 2 -20 11
-13 33 -32 17 -29 -24z"/>
<path d="M3263 2683 c-10 -4 -10 -10 -2 -25 7 -14 14 -17 21 -10 13 13 -3 41
-19 35z"/>
<path d="M3353 2683 c-10 -4 -10 -10 -2 -25 7 -14 14 -17 21 -10 13 13 -3 41
-19 35z"/>
<path d="M3443 2683 c-16 -6 -5 -33 13 -33 8 0 14 3 14 8 0 15 -15 29 -27 25z"/>
<path d="M3170 2660 c10 -18 9 -24 -1 -31 -10 -6 -10 -10 0 -23 19 -23 28 -12
26 31 0 28 -6 39 -19 41 -15 3 -16 1 -6 -18z"/>
<path d="M3215 2650 c-9 -15 5 -32 21 -26 7 3 18 -4 24 -15 6 -11 15 -17 21
-14 16 11 10 25 -16 35 -14 5 -25 14 -25 20 0 13 -17 13 -25 0z"/>
<path d="M3300 2653 c0 -17 18 -35 28 -29 6 4 16 -3 22 -15 8 -14 15 -18 22
-11 12 12 2 32 -16 32 -8 0 -19 7 -26 15 -13 16 -30 20 -30 8z"/>
<path d="M3396 2652 c-7 -12 11 -35 22 -28 6 4 16 -3 22 -15 8 -13 15 -18 21
-12 14 14 0 43 -17 36 -7 -3 -17 2 -20 11 -7 17 -20 21 -28 8z"/>
<path d="M3520 2621 c0 -5 6 -14 14 -20 16 -13 32 2 21 19 -8 12 -35 13 -35 1z"/>
<path d="M3217 2604 c-11 -11 5 -34 23 -34 10 0 21 -7 24 -16 3 -8 10 -12 16
-9 15 10 12 25 -7 32 -10 3 -25 12 -34 20 -9 7 -18 10 -22 7z"/>
<path d="M3309 2610 c-4 -23 -4 -78 -1 -87 2 -7 8 -10 14 -7 5 3 18 -2 28 -11
10 -9 20 -12 23 -8 8 13 -9 37 -21 29 -6 -4 -16 3 -23 15 -9 17 -8 23 2 30 11
7 11 12 -3 26 -10 9 -18 15 -19 13z"/>
<path d="M3397 2603 c-10 -16 11 -39 23 -27 8 8 7 14 -4 23 -8 7 -17 8 -19 4z"/>
<path d="M3487 2603 c-8 -13 9 -37 21 -29 6 4 16 -3 22 -14 6 -11 15 -18 21
-15 15 10 11 25 -8 32 -10 3 -25 12 -35 20 -9 8 -18 10 -21 6z"/>
<path d="M3166 2571 c-7 -10 18 -34 27 -25 7 8 -3 34 -13 34 -5 0 -11 -4 -14
-9z"/>
<path d="M3346 2571 c-3 -5 1 -14 8 -20 16 -13 32 2 21 19 -8 12 -22 13 -29 1z"/>
<path d="M3436 2571 c-7 -10 18 -34 27 -25 7 8 -3 34 -13 34 -5 0 -11 -4 -14
-9z"/>
<path d="M3216 2552 c-8 -14 4 -43 16 -36 5 3 18 -2 28 -11 10 -9 20 -12 23
-8 8 12 -8 35 -21 31 -6 -2 -17 6 -25 16 -9 12 -16 15 -21 8z"/>
<path d="M3396 2551 c-9 -14 5 -36 23 -36 17 0 38 -31 27 -42 -4 -4 -13 0 -20
10 -16 21 -40 23 -32 1 3 -9 6 -17 6 -20 0 -2 6 -1 13 2 8 3 20 -2 27 -11 20
-24 27 -18 24 23 -2 20 -3 41 -3 45 -1 5 -6 5 -12 1 -7 -4 -19 3 -29 16 -11
15 -20 19 -24 11z"/>
<path d="M3486 2552 c-8 -14 4 -43 16 -36 5 3 18 -2 28 -11 12 -11 20 -13 25
-6 9 15 -3 32 -20 29 -8 -2 -20 6 -28 16 -9 12 -16 15 -21 8z"/>
<path d="M3304 2484 c3 -9 6 -18 6 -20 0 -3 5 -2 11 1 5 4 19 -1 30 -11 21
-19 33 -15 23 9 -3 9 -12 13 -20 10 -7 -3 -17 2 -20 11 -3 9 -13 16 -21 16
-10 0 -13 -6 -9 -16z"/>
<path d="M3484 2484 c3 -9 6 -17 6 -20 0 -2 7 -1 15 2 12 5 13 10 4 20 -16 19
-33 18 -25 -2z"/>
<path d="M3530 2460 c0 -11 7 -20 15 -20 17 0 18 2 9 24 -9 23 -24 20 -24 -4z"/>
<path d="M3390 2443 c1 -18 19 -35 29 -28 9 5 9 10 0 21 -12 15 -29 19 -29 7z"/>
<path d="M3484 2434 c3 -9 6 -17 6 -20 0 -2 6 -1 14 2 18 7 9 34 -11 34 -10 0
-13 -6 -9 -16z"/>
<path d="M3445 2418 c-9 -22 4 -43 17 -30 7 7 7 16 0 29 -10 17 -11 17 -17 1z"/>
<path d="M1795 2710 c-166 -96 -261 -156 -263 -168 -3 -18 -22 -7 673 -407
198 -115 452 -261 565 -327 113 -65 216 -118 229 -118 21 0 498 266 531 296
21 20 13 26 -220 159 -113 65 -304 175 -425 245 -488 283 -795 459 -812 464
-12 3 -108 -46 -278 -144z m315 105 c8 -6 62 -38 120 -70 58 -32 118 -67 133
-78 16 -11 47 -29 70 -41 23 -12 161 -91 307 -175 146 -84 281 -162 300 -173
19 -11 43 -27 53 -36 9 -8 17 -12 17 -9 0 3 33 -13 73 -37 39 -23 129 -75 200
-115 70 -40 127 -76 127 -80 0 -4 -25 -21 -55 -38 -43 -25 -53 -28 -45 -14 5
10 7 21 4 23 -2 3 7 3 21 1 36 -7 46 24 14 48 -32 25 -64 21 -63 -8 0 -21 -1
-21 -28 -7 -15 8 -28 17 -28 20 0 3 4 3 9 0 16 -10 41 5 41 24 0 20 -52 45
-75 36 -8 -3 -15 -12 -15 -20 0 -8 -13 -15 -34 -18 -30 -3 -32 -2 -22 14 6 10
20 18 32 18 13 0 24 8 27 20 3 13 0 20 -9 20 -8 0 -14 4 -14 8 0 4 -16 9 -35
10 -32 2 -39 -3 -37 -28 0 -3 -12 -5 -27 -5 -18 0 -28 6 -28 16 -1 12 5 15 23
11 32 -6 45 25 19 44 -35 26 -79 17 -77 -16 0 -3 -12 -5 -27 -5 -18 0 -28 6
-28 16 -1 11 5 15 21 12 12 -3 28 2 35 11 10 12 8 17 -13 31 -29 19 -82 17
-78 -3 1 -8 -3 -12 -10 -9 -7 2 -22 0 -32 -6 -15 -7 -18 -6 -13 6 7 20 -33 47
-69 47 -15 0 -24 3 -21 7 4 3 1 13 -6 21 -10 13 -9 14 11 3 29 -16 52 -8 52
17 0 12 -11 24 -30 32 -33 14 -60 8 -60 -14 0 -8 -13 -15 -35 -18 -23 -3 -32
-1 -25 6 6 6 4 16 -7 28 -16 18 -16 18 11 4 16 -8 35 -12 42 -9 25 9 15 40
-16 53 -33 14 -60 8 -60 -14 0 -9 -7 -12 -20 -9 -11 3 -28 -1 -38 -8 -14 -11
-15 -11 -5 0 6 7 9 19 7 26 -3 8 4 10 26 7 25 -3 30 -1 30 15 0 11 -11 25 -24
32 -29 16 -71 11 -70 -9 1 -10 -8 -15 -25 -15 -18 0 -27 5 -27 16 0 10 7 14
21 11 12 -2 27 3 34 12 10 12 8 17 -13 31 -30 20 -82 17 -79 -5 2 -10 -6 -15
-26 -15 -22 0 -29 5 -28 17 1 12 7 16 22 12 12 -3 27 1 34 9 10 12 6 19 -19
37 -27 19 -35 21 -57 11 -19 -9 -22 -15 -14 -24 8 -11 4 -13 -19 -9 -17 2 -38
-2 -48 -9 -16 -13 -16 -13 0 7 14 16 15 23 5 33 -10 11 -8 11 10 2 45 -23 72
14 31 43 -30 22 -59 20 -65 -3 -3 -13 -16 -20 -38 -23 -29 -3 -31 -2 -22 14 6
9 14 15 18 12 14 -8 39 8 39 26 0 24 -56 47 -79 33 -9 -6 -15 -16 -14 -22 2
-6 -4 -8 -11 -5 -8 3 -25 0 -38 -7 -21 -11 -22 -11 -10 4 8 9 11 20 8 25 -3 4
8 7 23 4 16 -2 32 1 35 6 10 17 -35 52 -66 52 -16 0 -27 4 -23 10 9 15 -41 42
-72 38 -15 -2 -27 -8 -26 -14 1 -7 -11 -14 -27 -16 -16 -2 -27 0 -24 4 3 5 0
17 -7 26 -11 14 -11 15 1 5 19 -17 45 -16 59 1 9 11 6 18 -16 34 -15 10 -35
17 -43 15 -42 -13 -43 -13 -31 -27 10 -12 8 -13 -8 -9 -32 8 -83 -17 -78 -37
3 -13 -1 -16 -19 -12 -28 5 -78 -24 -71 -42 4 -9 -2 -11 -18 -8 -27 5 -78 -26
-71 -43 3 -8 -2 -11 -14 -8 -24 6 -83 -25 -77 -42 4 -9 -1 -11 -14 -8 -12 3
-36 -6 -59 -22 -22 -16 -44 -25 -48 -21 -7 8 -3 11 88 62 30 18 138 79 238
137 181 104 197 110 232 82z m-24 -30 c10 -8 14 -15 8 -15 -5 0 -19 7 -30 15
-10 8 -14 15 -8 15 5 0 19 -7 30 -15z m-56 -35 c13 -9 13 -11 0 -20 -8 -5 -19
-10 -25 -10 -19 0 -38 18 -31 29 9 14 36 14 56 1z m155 -28 c-7 -8 -35 7 -35
18 0 6 7 6 20 -2 10 -7 17 -14 15 -16z m-147 -24 c-12 -25 -70 -35 -61 -10 3
6 16 12 28 12 13 0 27 5 30 10 11 19 13 10 3 -12z m-98 2 c13 -9 13 -11 0 -20
-8 -5 -19 -10 -25 -10 -19 0 -38 18 -31 29 9 14 36 14 56 1z m180 0 c13 -9 13
-11 0 -20 -19 -12 -41 -12 -59 -1 -11 7 -10 11 5 20 24 13 35 13 54 1z m90
-15 c0 -8 -8 -11 -20 -8 -11 3 -28 -1 -38 -8 -15 -13 -16 -12 -4 3 8 9 11 21
8 26 -3 4 8 6 25 4 16 -2 29 -10 29 -17z m60 -5 c13 -9 13 -10 0 -10 -8 0 -22
5 -30 10 -13 9 -13 10 0 10 8 0 22 -5 30 -10z m-323 -32 c-13 -28 -63 -34 -63
-9 0 13 7 16 27 13 15 -2 30 1 33 7 12 19 14 12 3 -11z m-98 3 c7 -5 10 -14 7
-20 -9 -14 -36 -14 -56 -1 -13 9 -13 11 0 20 18 12 31 12 49 1z m180 0 c7 -5
10 -14 7 -20 -8 -13 -45 -14 -65 -2 -11 7 -10 11 5 20 23 13 35 13 53 2z m180
-5 c19 -22 -17 -38 -48 -21 -23 12 -23 13 -5 23 26 15 39 15 53 -2z m-91 -14
c2 -7 -2 -10 -11 -6 -9 3 -25 0 -37 -6 -19 -10 -20 -10 -8 10 14 22 49 24 56
2z m243 -9 c13 -15 12 -15 -11 -3 -34 17 -36 20 -18 20 9 0 22 -7 29 -17z
m-554 -50 c64 -35 65 -36 42 -49 -21 -11 -30 -9 -79 18 -72 40 -78 47 -60 58
22 14 26 13 97 -27z m46 18 c-4 -17 -8 -18 -24 -8 -19 12 -19 12 3 19 13 3 24
6 25 7 0 1 -1 -8 -4 -18z m91 6 c17 -12 16 -14 -7 -24 -20 -9 -29 -9 -44 2
-16 13 -16 16 -3 25 20 13 33 13 54 -3z m89 -7 c-2 -8 -16 -16 -31 -17 -15 0
-36 -13 -49 -27 -12 -14 -31 -26 -43 -26 -11 0 -32 -11 -45 -24 -13 -13 -35
-26 -50 -28 -19 -4 -23 -2 -16 5 7 7 7 14 0 23 -8 9 -5 11 10 7 12 -3 18 -10
15 -15 -3 -5 10 1 30 14 24 15 35 29 32 40 -3 14 0 16 12 9 28 -15 93 23 79
46 -3 4 10 8 27 8 24 0 32 -4 29 -15z m87 10 c13 -9 13 -12 -3 -25 -15 -11
-24 -11 -44 -2 -23 10 -24 12 -7 24 21 16 34 16 54 3z m95 -13 c0 -19 -4 -22
-32 -19 -38 5 -35 29 5 35 15 2 27 5 27 6 0 0 0 -9 0 -22z m80 9 c18 -13 18
-14 -3 -25 -17 -9 -27 -9 -44 0 -21 11 -21 12 -3 25 10 8 22 14 25 14 3 0 15
-6 25 -14z m151 -21 c10 -8 14 -15 8 -15 -5 0 -19 7 -30 15 -10 8 -14 15 -8
15 5 0 19 -7 30 -15z m-771 -29 c18 -13 18 -14 -3 -20 -12 -4 -32 -4 -44 0
-21 6 -21 7 -3 20 10 8 22 14 25 14 3 0 15 -6 25 -14z m354 -22 c-17 -9 -29
-9 -46 -1 l-24 11 22 12 c17 9 29 9 46 1 l24 -11 -22 -12z m175 23 c16 -12 16
-14 2 -27 -14 -11 -21 -11 -41 0 -23 12 -23 14 -7 26 22 17 24 17 46 1z m101
-10 c0 -19 -4 -22 -32 -19 -22 3 -30 8 -26 18 3 8 9 11 14 8 6 -3 44 10 44 16
0 0 0 -10 0 -23z m95 -2 c0 -2 -9 -9 -20 -15 -14 -8 -26 -7 -42 1 l-21 12 24
12 c21 12 59 5 59 -10z m-665 9 c13 -5 14 -8 3 -15 -19 -13 -28 -11 -28 6 0
17 2 18 25 9z m385 -9 c0 -7 -13 -15 -29 -17 -22 -3 -27 -1 -24 13 5 19 53 23
53 4z m416 -10 c10 -8 14 -15 8 -15 -5 0 -19 7 -30 15 -10 8 -14 15 -8 15 5 0
19 -7 30 -15z m-921 -16 c34 -20 36 -20 63 -4 26 17 26 17 10 -1 -17 -17 -17
-19 0 -37 12 -14 -1 -10 -43 13 -33 18 -64 37 -69 42 -18 15 2 8 39 -13z m150
-13 c18 -13 18 -14 -3 -25 -17 -9 -27 -9 -44 0 -21 11 -21 12 -3 25 10 8 22
14 25 14 3 0 15 -6 25 -14z m179 -23 c-23 -17 -39 -16 -53 1 -18 21 15 37 47
23 22 -10 23 -12 6 -24z m96 22 c-6 -8 -10 -18 -7 -22 3 -4 -10 -8 -27 -8 -26
0 -32 4 -28 17 2 9 10 14 17 11 8 -2 22 0 32 6 25 14 28 14 13 -4z m84 -22
c-21 -16 -34 -16 -54 -3 -13 9 -13 12 3 25 15 11 24 11 44 2 23 -10 24 -12 7
-24z m89 12 c-2 -7 -17 -15 -32 -17 -22 -3 -27 -1 -24 11 2 10 16 16 33 17 19
1 27 -3 23 -11z m93 4 c13 -21 -29 -36 -55 -20 -19 12 -5 31 24 31 13 0 27 -5
31 -11z m86 -6 c4 -14 -2 -18 -27 -18 -36 0 -38 21 -2 28 12 2 23 5 23 6 1 0
4 -7 6 -16z m82 11 c22 -8 20 -21 -4 -29 -26 -8 -68 14 -49 26 17 10 32 11 53
3z m162 -31 c-8 -8 -36 5 -36 17 0 7 6 7 21 0 11 -7 18 -14 15 -17z m-865 -17
c-16 -19 34 -59 66 -53 12 2 22 1 21 -2 -2 -20 5 -30 32 -41 16 -7 37 -9 46
-6 11 4 15 2 11 -8 -3 -7 0 -19 6 -27 8 -8 3 -7 -13 2 -14 9 -71 42 -127 73
-95 54 -125 74 -89 60 8 -3 23 -1 33 5 24 14 28 14 14 -3z m82 -1 c18 -13 18
-14 -2 -25 -16 -8 -27 -8 -43 1 -21 11 -21 12 -3 25 23 17 25 17 48 -1z m97 0
c-6 -8 -9 -18 -6 -23 3 -4 -8 -7 -23 -4 -15 2 -28 10 -28 17 0 7 6 11 13 8 7
-2 21 0 31 6 25 14 28 14 13 -4z m84 -22 c-22 -16 -37 -16 -52 -1 -19 19 16
38 46 25 22 -10 23 -12 6 -24z m96 22 c-6 -8 -10 -18 -7 -22 3 -4 -10 -8 -28
-9 -25 0 -31 3 -28 16 3 12 12 16 28 13 12 -3 26 0 29 6 4 6 10 11 13 11 3 0
0 -7 -7 -15z m176 -4 c-9 -10 -28 -21 -40 -23 -18 -4 -22 -1 -19 13 3 10 11
15 18 12 8 -2 22 0 32 6 26 15 28 13 9 -8z m154 2 c13 3 20 0 20 -9 0 -8 -9
-14 -20 -14 -25 0 -70 -28 -70 -44 0 -6 -11 -11 -25 -11 -14 0 -25 6 -25 13 0
6 10 12 23 12 12 0 33 9 47 19 22 17 23 21 10 38 -14 16 -14 17 2 4 10 -7 27
-11 38 -8z m-244 -4 c13 -21 -29 -36 -55 -20 -19 12 -5 31 24 31 13 0 27 -5
31 -11z m174 1 c13 -9 13 -11 0 -20 -8 -5 -19 -10 -25 -10 -19 0 -38 18 -31
29 9 14 36 14 56 1z m180 0 c13 -9 13 -11 0 -20 -17 -11 -32 -12 -54 -4 -13 5
-14 9 -5 20 13 16 38 18 59 4z m150 -20 c13 -9 13 -10 0 -10 -8 0 -22 5 -30
10 -13 9 -13 10 0 10 8 0 22 -5 30 -10z m-500 -25 c-6 -8 -10 -18 -7 -22 3 -4
-8 -8 -23 -8 -18 0 -31 6 -33 16 -3 11 2 14 23 11 15 -2 31 1 34 7 4 6 10 11
13 11 3 0 0 -7 -7 -15z m-271 -4 c12 -8 10 -12 -12 -22 -21 -9 -30 -9 -42 1
-13 11 -13 15 -3 21 17 11 40 11 57 0z m84 -8 c-3 -7 -15 -13 -27 -13 -13 0
-23 6 -23 13 0 6 12 12 27 12 18 0 26 -4 23 -12z m92 -3 c0 -18 -34 -24 -55
-10 -13 9 -13 11 0 20 21 14 55 8 55 -10z m174 11 c7 -5 10 -14 7 -20 -9 -14
-36 -14 -56 -1 -13 9 -13 11 0 20 18 12 31 12 49 1z m180 0 c19 -12 5 -31 -24
-31 -13 0 -27 5 -31 11 -7 11 12 29 31 29 6 0 16 -4 24 -9z m91 -13 c0 -11 -6
-15 -20 -11 -11 3 -28 -1 -38 -8 -15 -13 -16 -12 -4 3 8 9 12 21 9 25 -3 4 8
8 24 8 20 0 29 -5 29 -17z m90 12 c13 -9 13 -11 0 -20 -19 -12 -41 -12 -59 -1
-11 7 -10 11 5 20 24 13 35 13 54 1z m150 -20 c13 -9 13 -10 0 -10 -8 0 -22 5
-30 10 -13 9 -13 10 0 10 8 0 22 -5 30 -10z m-598 -131 c106 -61 195 -113 197
-115 2 -2 -7 -8 -21 -14 -22 -10 -41 -2 -179 78 -85 49 -172 100 -194 112 -22
13 -42 25 -45 27 -6 5 22 23 37 23 7 0 99 -50 205 -111z m-86 92 c0 -16 -3
-18 -20 -9 -20 11 -20 11 -1 19 11 4 20 8 20 8 1 1 1 -8 1 -18z m88 6 c17 -12
16 -14 -7 -24 -20 -9 -29 -9 -44 2 -16 13 -16 16 -3 25 20 13 33 13 54 -3z
m89 -7 c-6 -21 -50 -22 -56 -1 -3 12 3 16 28 16 23 0 31 -4 28 -15z m87 10
c13 -9 13 -12 -3 -25 -15 -11 -24 -11 -44 -2 -23 10 -24 12 -7 24 21 16 34 16
54 3z m93 -9 c-3 -11 -11 -17 -18 -15 -7 3 -23 0 -35 -6 -19 -10 -20 -10 -8 9
7 11 24 22 38 24 14 2 26 5 27 6 0 0 -1 -8 -4 -18z m87 9 c13 -9 13 -12 -3
-25 -15 -11 -24 -11 -44 -2 -23 10 -24 12 -7 24 21 16 34 16 54 3z m92 -13
c-2 -10 -7 -16 -9 -13 -2 2 -18 0 -35 -4 -25 -8 -28 -7 -18 5 6 8 10 18 7 22
-3 4 10 8 27 8 27 0 32 -3 28 -18z m84 9 c18 -14 18 -15 -6 -24 -16 -6 -31 -5
-43 2 -16 10 -16 12 0 24 21 15 25 15 49 -2z m150 -21 c10 -8 14 -15 8 -15 -5
0 -19 7 -30 15 -10 8 -14 15 -8 15 5 0 19 -7 30 -15z m-808 -79 c19 -10 32
-20 29 -22 -5 -5 -147 75 -147 83 0 3 19 -6 43 -20 23 -13 57 -32 75 -41z
m127 54 c-4 -6 -1 -18 6 -26 9 -11 4 -10 -19 3 -31 17 -31 18 -9 25 12 3 23 6
25 7 2 1 0 -4 -3 -9z m91 -4 c18 -14 18 -15 -8 -21 -39 -10 -64 1 -48 20 16
19 31 19 56 1z m87 -6 c-3 -11 -13 -20 -23 -20 -10 0 -24 -2 -32 -3 -7 -2 -10
-2 -5 0 4 3 7 11 7 18 0 8 12 16 28 18 15 2 28 5 29 6 0 0 -1 -8 -4 -19z m87
8 c19 -12 19 -13 -2 -24 -16 -8 -28 -9 -45 -1 -21 9 -21 11 -5 23 21 17 28 17
52 2z m78 -1 c6 3 12 -2 12 -10 0 -9 -13 -16 -35 -19 -26 -3 -32 -1 -24 9 6 7
8 17 4 24 -5 8 -2 8 11 1 11 -5 25 -7 32 -5z m97 -1 c18 -13 18 -14 -3 -25
-16 -9 -26 -9 -41 1 -18 11 -18 13 -3 25 22 16 24 16 47 -1z m100 -10 c0 -21
-3 -22 -27 -15 -16 4 -28 4 -28 -1 0 -4 -7 -11 -15 -14 -13 -5 -12 -1 2 18 10
13 21 22 25 19 6 -3 43 12 43 17 0 0 0 -11 0 -24z m80 10 c18 -13 18 -14 -3
-25 -17 -9 -27 -9 -44 0 -21 11 -21 12 -3 25 10 8 22 14 25 14 3 0 15 -6 25
-14z m-366 -49 c16 4 20 2 15 -10 -3 -8 -18 -17 -34 -19 -20 -3 -27 -1 -23 9
3 8 -3 21 -13 30 -17 14 -17 14 7 0 15 -9 36 -13 48 -10z m-75 -24 c-23 -17
-39 -16 -53 1 -18 21 15 37 47 23 22 -10 23 -12 6 -24z m175 -1 c-17 -12 -25
-12 -45 -1 l-25 13 23 12 c16 8 28 9 45 1 l23 -10 -21 -15z m178 0 c-14 -13
-21 -14 -44 -3 l-28 13 25 13 c17 9 30 10 44 3 17 -9 17 -11 3 -26z m88 28 c8
7 18 10 22 6 3 -3 1 -6 -6 -6 -8 0 -11 -8 -9 -17 4 -15 -2 -18 -28 -18 -17 0
-30 4 -27 8 3 4 -1 15 -8 23 -11 13 -9 14 14 3 21 -9 30 -9 42 1z m-532 -16
c-4 -10 -10 -11 -24 -3 -24 13 -24 14 5 15 17 1 23 -2 19 -12z m360 -6 c4 -14
1 -15 -18 -8 -14 5 -26 5 -33 -2 -8 -8 -9 -5 -6 8 6 24 51 26 57 2z m266 13
c24 -15 -24 -35 -50 -20 -17 9 -19 13 -8 20 8 5 21 9 29 9 8 0 21 -4 29 -9z
m147 -16 c16 -12 16 -14 3 -15 -9 0 -22 7 -29 15 -16 19 0 19 26 0z m-799 -89
c88 -49 101 -53 123 -33 12 10 12 9 1 -5 -11 -15 -11 -21 0 -35 9 -10 -3 -6
-31 10 -25 15 -79 46 -120 68 -41 22 -86 49 -100 61 l-25 20 35 -20 c19 -11
72 -40 117 -66z m207 37 c-21 -16 -34 -16 -54 -3 -13 9 -13 12 3 25 15 11 24
11 44 2 23 -10 24 -12 7 -24z m96 22 c-6 -8 -10 -18 -7 -22 3 -4 -10 -8 -27
-8 -26 0 -32 4 -28 17 2 9 10 14 17 11 8 -2 22 0 32 6 25 14 28 14 13 -4z m90
-14 c0 -13 -30 -22 -51 -16 -24 8 -24 21 -2 34 18 10 53 -2 53 -18z m88 10
c-6 -11 -24 -21 -39 -23 -37 -6 -27 15 14 29 18 5 33 11 35 12 1 0 -3 -8 -10
-18z m180 0 c-6 -11 -24 -21 -39 -23 -37 -6 -27 15 14 29 18 5 33 11 35 12 1
0 -3 -8 -10 -18z m-548 -6 c0 -9 -6 -12 -16 -8 -13 5 -13 7 -2 14 17 11 18 11
18 -6z m450 5 c13 -9 13 -11 0 -20 -8 -5 -19 -10 -25 -10 -19 0 -38 18 -31 29
9 14 36 14 56 1z m180 0 c13 -9 13 -11 0 -20 -21 -14 -46 -12 -59 4 -9 11 -9
15 1 19 21 9 42 7 58 -3z m150 -20 c13 -9 13 -10 0 -10 -8 0 -22 5 -30 10 -13
9 -13 10 0 10 8 0 22 -5 30 -10z m-680 -25 c-6 -8 -10 -18 -7 -22 3 -4 -10 -8
-28 -9 -26 0 -31 3 -27 18 3 13 8 16 17 8 8 -7 18 -5 31 5 25 19 30 19 14 0z
m171 3 c17 11 18 11 8 -6 -6 -10 -26 -23 -45 -28 -28 -9 -32 -9 -23 2 9 11 8
18 -1 30 -12 13 -10 14 14 3 22 -10 32 -10 47 -1z m-85 -9 c7 -11 -12 -29 -31
-29 -5 0 -17 5 -25 10 -13 9 -13 11 0 20 20 13 47 13 56 -1z m174 1 c13 -9 13
-11 0 -20 -8 -5 -19 -10 -25 -10 -19 0 -38 18 -31 29 9 14 36 14 56 1z m90 -7
c0 -7 -9 -13 -20 -13 -25 0 -70 -28 -70 -44 0 -22 -47 -12 -58 14 -9 19 -9 21
0 12 7 -7 20 -12 30 -12 25 0 70 30 65 44 -3 6 7 11 24 11 17 0 29 -5 29 -12z
m90 7 c13 -9 13 -11 0 -20 -19 -13 -47 -13 -55 0 -16 25 25 40 55 20z m87 -11
c-1 -9 -7 -15 -13 -12 -14 5 -74 -23 -74 -35 0 -5 6 -14 13 -21 10 -10 7 -10
-14 -1 -21 9 -32 9 -50 -1 -22 -11 -23 -11 -11 4 8 9 11 20 8 25 -3 5 5 7 18
5 27 -6 79 24 73 41 -3 6 7 11 23 11 20 0 28 -5 27 -16z m93 11 c13 -9 13 -11
0 -20 -17 -11 -32 -12 -54 -4 -13 5 -14 9 -5 20 13 16 38 18 59 4z m150 -20
c13 -9 13 -10 0 -10 -8 0 -22 5 -30 10 -13 9 -13 10 0 10 8 0 22 -5 30 -10z
m-770 -30 c13 -9 13 -11 0 -20 -8 -5 -22 -10 -30 -10 -8 0 -22 5 -30 10 -13 9
-13 11 0 20 8 5 22 10 30 10 8 0 22 -5 30 -10z m86 -9 c0 -12 -6 -17 -17 -14
-9 3 -28 0 -40 -7 -23 -11 -23 -10 -5 4 11 9 16 17 10 17 -5 1 5 5 21 9 17 4
30 8 30 9 1 0 1 -7 1 -18z m83 10 c7 -5 10 -14 7 -20 -9 -14 -36 -14 -56 -1
-13 9 -13 11 0 20 18 12 31 12 49 1z m180 0 c19 -12 5 -31 -24 -31 -13 0 -27
5 -31 11 -7 11 12 29 31 29 6 0 16 -4 24 -9z m181 -1 c13 -9 13 -12 -3 -25
-15 -11 -24 -11 -44 -2 -23 10 -24 12 -7 24 21 16 34 16 54 3z m87 -17 c3 -7
-4 -9 -16 -6 -12 3 -29 -1 -39 -8 -15 -13 -16 -12 -4 3 8 9 11 21 8 27 -4 6 4
6 21 2 15 -4 28 -12 30 -18z m92 13 c19 -22 -17 -38 -48 -21 -23 12 -23 13 -5
23 26 15 39 15 53 -2z m141 -16 c8 -5 12 -11 9 -14 -3 -3 -14 1 -25 9 -21 16
-8 20 16 5z m-866 -28 c16 9 18 7 13 -6 -9 -23 35 -49 73 -44 23 3 27 2 19 -8
-7 -9 -4 -17 13 -29 31 -23 15 -17 -60 24 -34 19 -62 38 -62 43 0 5 -4 7 -9 4
-4 -3 -17 2 -27 10 -18 15 -18 15 1 5 13 -6 26 -6 39 1z m98 -3 c17 -9 18 -13
7 -20 -18 -11 -40 -11 -59 1 -13 9 -13 11 0 20 19 13 27 12 52 -1z m94 -9 c0
-10 -10 -15 -28 -15 -16 0 -29 6 -31 15 -3 11 5 15 27 15 22 0 32 -5 32 -15z
m88 7 c17 -12 16 -14 -7 -24 -20 -9 -29 -9 -44 2 -16 13 -16 16 -3 25 20 13
33 13 54 -3z m89 -5 c-2 -10 -15 -19 -29 -20 -34 -3 -31 26 4 31 15 2 28 5 29
6 0 0 -1 -7 -4 -17z m89 7 l21 -11 -23 -13 c-18 -10 -30 -10 -48 -2 -22 10
-23 12 -6 24 22 16 29 16 56 2z m91 -9 c-4 -14 -14 -20 -32 -20 -15 0 -33 -6
-41 -12 -8 -7 -4 -1 9 14 13 15 27 26 30 23 4 -2 13 0 21 6 8 5 16 9 17 9 0 0
-1 -9 -4 -20z m82 6 c18 -13 18 -14 -3 -25 -18 -9 -27 -9 -43 3 -20 13 -20 15
-2 25 24 14 26 13 48 -3z m100 -9 c0 -19 -4 -22 -32 -19 -22 3 -30 8 -26 18 3
8 9 11 14 8 6 -3 44 10 44 16 0 0 0 -10 0 -23z m121 -14 c49 -29 61 -40 52
-50 -15 -19 -24 -17 -96 23 -60 34 -64 38 -47 50 24 18 19 20 91 -23z m110 2
c10 -8 14 -15 8 -15 -5 0 -19 7 -30 15 -10 8 -14 15 -8 15 5 0 19 -7 30 -15z
m-673 -29 c-22 -30 -73 -41 -66 -15 3 10 15 17 30 17 13 0 30 5 36 11 19 19
19 12 0 -13z m-101 3 c21 -11 21 -12 -3 -24 -17 -10 -29 -10 -43 -3 -19 10
-19 11 -1 24 23 17 21 17 47 3z m172 -1 c26 -11 26 -11 5 -26 -17 -12 -25 -12
-45 -2 -22 12 -22 14 -6 26 21 16 16 16 46 2z m196 -13 c0 -2 -9 -9 -20 -15
-14 -8 -25 -7 -40 2 -19 12 -19 13 3 24 19 11 57 3 57 -11z m180 0 c0 -2 -9
-9 -20 -15 -14 -8 -26 -7 -42 1 l-21 12 24 12 c21 12 59 5 59 -10z m60 -6 c12
-9 11 -10 -7 -6 -12 3 -24 2 -26 -2 -2 -3 -3 -1 -1 5 1 6 -3 17 -9 24 -10 10
-8 10 8 2 11 -6 27 -16 35 -23z m-340 6 c0 -7 -13 -15 -29 -17 -22 -3 -27 -1
-24 11 5 19 53 24 53 6z m183 -4 c3 -12 -3 -16 -28 -16 -23 0 -31 4 -28 15 6
21 50 22 56 1z m-442 -35 c-9 -11 -6 -18 16 -36 15 -11 34 -19 43 -17 10 2 20
-5 27 -19 13 -27 10 -30 -9 -11 -7 6 -29 20 -48 30 -19 10 -46 27 -60 38 -14
12 -19 18 -13 14 7 -3 21 -1 30 4 24 14 27 13 14 -3z m84 0 c18 -13 18 -14 -3
-25 -17 -9 -27 -9 -44 0 -21 11 -21 12 -3 25 10 8 22 14 25 14 3 0 15 -6 25
-14z m69 0 c10 4 16 1 16 -9 0 -8 -12 -16 -27 -19 -23 -3 -28 0 -28 18 0 15 4
19 11 13 6 -5 19 -7 28 -3z m204 -65 c2 -5 -6 -12 -18 -16 -13 -4 -38 4 -75
25 -64 37 -71 45 -48 59 14 7 32 1 78 -24 33 -19 61 -38 63 -44z m92 49 c0
-15 -38 -22 -61 -9 l-22 12 24 12 c24 13 59 4 59 -15z m167 -8 c-14 -13 -21
-14 -44 -3 l-28 13 25 13 c17 9 30 10 44 3 17 -9 17 -11 3 -26z m80 23 c16 4
26 5 23 2 -7 -6 -161 -97 -165 -97 -2 0 -47 -26 -102 -58 -54 -32 -105 -61
-114 -64 -10 -4 -40 8 -73 28 -31 19 -59 34 -61 34 -2 0 -26 14 -52 30 -26 17
-43 30 -37 30 5 0 16 -4 24 -10 9 -5 19 -5 27 2 10 8 12 7 7 -5 -7 -19 49 -51
76 -44 12 3 17 0 14 -8 -6 -15 33 -45 58 -45 32 0 70 23 65 40 -3 13 1 16 19
12 31 -6 78 24 70 45 -5 12 -3 13 7 5 18 -15 83 19 81 42 -1 9 3 13 8 10 14
-9 54 4 73 22 13 13 13 19 3 33 -12 14 -11 15 4 2 11 -8 28 -11 45 -6z m-352
-14 c-3 -6 -11 -8 -17 -5 -6 4 -5 9 3 15 16 10 23 4 14 -10z m188 -1 c3 -11
-5 -15 -28 -15 -23 0 -31 4 -28 15 2 8 15 15 28 15 13 0 26 -7 28 -15z m-359
-57 c-23 -17 -39 -16 -53 1 -18 21 15 37 47 23 22 -10 23 -12 6 -24z m264 27
c22 10 24 9 13 -4 -7 -8 -10 -19 -7 -24 3 -4 -7 -7 -22 -5 -16 2 -37 -4 -52
-16 -21 -17 -22 -21 -10 -38 12 -15 12 -16 0 -5 -8 6 -23 12 -35 12 -12 0 -27
-6 -34 -12 -11 -10 -10 -8 0 10 8 12 23 22 34 22 11 0 31 9 45 19 21 17 22 21
10 37 -14 16 -13 16 9 5 18 -10 29 -10 49 -1z m92 -10 c13 -9 13 -11 0 -20 -8
-5 -19 -10 -25 -10 -19 0 -38 18 -31 29 9 14 36 14 56 1z m-292 -9 c10 -6 7
-10 -11 -13 -18 -4 -24 -1 -20 9 6 15 13 16 31 4z m26 -37 c13 -5 14 -9 5 -20
-13 -16 -38 -18 -59 -4 -13 9 -13 11 0 20 17 11 32 12 54 4z m175 -3 c7 -5 10
-14 7 -20 -9 -14 -36 -14 -56 -1 -13 9 -13 11 0 20 18 12 31 12 49 1z m-84
-61 c0 -18 -34 -24 -55 -10 -13 9 -13 11 0 20 21 14 55 8 55 -10z"/>
<path d="M2931 2286 c-9 -11 -6 -18 18 -35 33 -24 52 -26 69 -9 9 9 7 17 -10
35 -24 26 -60 30 -77 9z m55 -21 c10 -8 14 -15 8 -15 -5 0 -19 7 -30 15 -10 8
-14 15 -8 15 5 0 19 -7 30 -15z"/>
<path d="M2147 2853 c-9 -8 24 -32 46 -33 20 0 22 11 5 28 -13 13 -41 16 -51
5z"/>
<path d="M2240 2803 c0 -8 92 -63 105 -63 15 0 -8 20 -51 44 -51 28 -54 30
-54 19z"/>
<path d="M1398 2481 c-26 -15 -37 -31 -20 -31 11 1 57 38 52 43 -3 2 -17 -3
-32 -12z"/>
<path d="M1258 2400 c-104 -61 -114 -71 -90 -92 33 -28 92 -60 92 -49 0 6 -18
20 -39 31 -22 11 -42 24 -46 29 -3 6 29 30 72 55 109 63 109 63 102 70 -3 3
-44 -17 -91 -44z"/>
<path d="M3130 2286 c0 -5 86 -56 94 -56 17 0 1 18 -34 38 -36 20 -60 28 -60
18z"/>
<path d="M1830 2135 c-93 -54 -145 -90 -145 -101 0 -23 423 -265 450 -258 23
7 293 163 300 173 9 15 -17 33 -190 133 -208 121 -239 138 -257 138 -7 0 -78
-38 -158 -85z m243 23 c40 -24 92 -54 118 -68 142 -79 219 -126 216 -134 -2
-5 -28 -23 -58 -40 -221 -123 -231 -128 -242 -117 -8 8 -5 11 10 11 12 0 28 3
37 6 30 11 16 21 -29 20 -32 -1 -44 -5 -40 -14 5 -13 -31 3 -95 43 -19 12 -57
34 -85 50 -100 55 -205 117 -205 120 0 2 53 34 118 70 64 37 121 70 126 73 5
3 7 -1 4 -10 -5 -12 4 -14 43 -14 27 1 49 4 49 8 0 13 -42 30 -61 25 -10 -3
-17 -1 -13 4 10 17 35 9 107 -33z"/>
<path d="M1751 2053 l-23 -18 21 -19 c23 -21 41 -15 22 8 -9 11 -9 15 0 18 7
2 10 10 8 17 -4 10 -10 8 -28 -6z"/>
<path d="M2337 1983 c-4 -3 -2 -12 4 -20 9 -9 8 -13 0 -13 -6 0 -11 -4 -11
-10 0 -15 26 -12 40 5 18 22 -13 59 -33 38z"/>
<path d="M3260 2213 c0 -9 186 -116 210 -121 28 -7 -3 15 -103 72 -102 58
-107 61 -107 49z"/>
<path d="M3510 2060 c0 -5 7 -10 15 -10 8 0 15 5 15 10 0 6 -7 10 -15 10 -8 0
-15 -4 -15 -10z"/>
<path d="M2827 1723 c-14 -13 -6 -24 25 -37 34 -15 58 -11 58 8 0 22 -67 45
-83 29z"/>
<path d="M2868 1619 c-21 -11 -38 -24 -38 -30 0 -6 18 0 40 12 22 13 40 26 40
31 0 10 2 11 -42 -13z"/>
<path d="M2727 1538 c-37 -22 -65 -43 -63 -46 7 -7 136 67 136 78 0 13 5 15
-73 -32z"/>
<path d="M2740 4072 c0 -9 107 -72 123 -72 21 0 78 40 72 50 -3 5 -21 0 -40
-11 l-35 -21 -50 31 c-51 31 -70 38 -70 23z"/>
<path d="M1100 4000 c-56 -12 -85 -26 -119 -60 -89 -90 -94 -215 -11 -335 57
-82 80 -144 80 -214 0 -53 4 -68 25 -93 14 -16 22 -35 19 -40 -4 -6 -3 -8 3
-5 5 4 16 -5 23 -18 12 -23 40 -35 40 -17 0 4 18 31 40 60 37 48 40 57 40 116
0 68 20 117 103 250 32 51 37 68 37 118 0 70 -19 121 -63 166 -58 61 -141 88
-217 72z m127 -31 c40 -15 102 -79 119 -124 28 -75 17 -127 -56 -248 -60 -102
-63 -105 -87 -94 -22 10 -24 15 -18 52 3 22 18 65 32 95 15 30 29 59 31 64 3
5 -12 6 -32 2 -32 -6 -37 -4 -48 19 -14 32 -25 32 -40 0 -10 -22 -16 -24 -44
-19 l-32 6 24 -60 c13 -33 27 -80 30 -104 6 -40 4 -45 -19 -55 -25 -12 -27
-10 -55 40 -16 29 -43 76 -62 104 -41 66 -50 134 -26 198 22 57 95 122 145
131 20 3 41 7 46 9 12 3 62 -5 92 -16z m-29 -277 c19 5 19 4 -4 -46 -13 -28
-24 -61 -24 -73 0 -34 -11 -53 -29 -53 -12 0 -18 10 -19 37 -2 20 -11 59 -20
88 l-18 51 22 -4 c16 -3 24 2 29 19 l7 22 18 -23 c12 -15 24 -21 38 -18z m-43
-202 c3 -5 -1 -10 -9 -10 -9 0 -16 5 -16 10 0 6 4 10 9 10 6 0 13 -4 16 -10z
m3 -36 c12 4 22 14 22 22 0 12 4 12 20 4 29 -15 25 -28 -14 -47 -36 -17 -69
-13 -101 12 -20 15 -20 15 -1 30 17 13 20 12 35 -7 13 -15 23 -19 39 -14z m5
-61 c-7 -2 -21 -2 -30 0 -10 3 -4 5 12 5 17 0 24 -2 18 -5z m0 -30 c-7 -2 -21
-2 -30 0 -10 3 -4 5 12 5 17 0 24 -2 18 -5z"/>
<path d="M1280 4005 c0 -2 23 -27 50 -54 28 -28 50 -58 50 -69 0 -27 25 -58
34 -43 12 19 -42 118 -78 146 -30 23 -56 32 -56 20z"/>
<path d="M1407 3814 c-4 -4 -7 -25 -7 -46 0 -45 23 -49 28 -5 4 29 -10 62 -21
51z"/>
<path d="M931 3600 c-1 -22 34 -63 49 -58 9 3 3 15 -18 39 -19 21 -31 28 -31
19z"/>
<path d="M986 3511 c-9 -13 32 -103 43 -96 6 3 3 23 -6 50 -16 47 -28 62 -37
46z"/>
<path d="M1694 3386 c-3 -8 -26 -17 -52 -21 -83 -12 -147 -43 -192 -91 l-42
-46 4 -80 3 -80 50 -46 c28 -25 39 -40 27 -33 -33 18 -42 3 -12 -19 26 -20 78
-36 87 -27 2 3 -8 13 -24 22 -15 9 -19 13 -8 10 61 -21 75 -28 75 -41 0 -11 5
-12 18 -6 9 5 58 12 107 15 110 6 193 35 249 87 39 37 41 40 44 112 3 64 1 77
-20 108 -31 46 -93 86 -159 104 -30 8 -46 15 -35 15 31 1 99 -22 136 -46 38
-25 50 -28 50 -13 0 5 -27 23 -60 39 -91 45 -235 67 -246 37z m74 -13 c-10 -2
-28 -2 -40 0 -13 2 -5 4 17 4 22 1 32 -1 23 -4z m105 -48 c56 -20 123 -79 132
-117 15 -60 -48 -129 -147 -162 -147 -49 -351 -5 -409 87 -49 78 16 164 152
202 68 19 204 14 272 -10z m-403 -263 c0 -13 -3 -12 -15 4 -19 25 -19 40 0 24
8 -7 15 -20 15 -28z m161 -50 c41 -5 55 -12 57 -26 4 -17 -1 -18 -49 -12 -63
9 -143 46 -147 69 -3 15 1 14 41 -3 24 -11 69 -23 98 -28z m306 11 c-3 -10 -5
-4 -5 12 0 17 2 24 5 18 2 -7 2 -21 0 -30z m-187 -38 c0 -8 -9 -15 -20 -15
-11 0 -20 7 -20 15 0 8 9 15 20 15 11 0 20 -7 20 -15z"/>
<path d="M1609 3304 c-55 -16 -105 -60 -115 -99 -35 -139 277 -211 411 -94 30
27 35 37 35 74 0 35 -6 49 -31 74 -56 56 -196 77 -300 45z m151 -16 c0 -8 -15
-13 -40 -13 -25 0 -40 5 -40 13 0 7 15 12 40 12 25 0 40 -5 40 -12z m40 -8 c0
-5 -4 -10 -10 -10 -5 0 -10 5 -10 10 0 6 5 10 10 10 6 0 10 -4 10 -10z m82
-31 l33 -30 -42 21 c-24 11 -43 25 -43 30 0 18 19 10 52 -21z m-120 -26 c28
-16 69 -38 92 -50 22 -13 41 -28 41 -35 0 -17 -82 -58 -115 -58 -24 0 -126 53
-203 104 -26 18 -27 20 -11 29 27 15 96 36 122 36 12 1 46 -11 74 -26z m81 3
c18 -7 43 -26 57 -41 l25 -28 -35 20 c-91 54 -104 63 -92 63 7 0 27 -6 45 -14z
m-281 -60 c10 -7 14 -17 10 -21 -4 -5 -2 -5 5 -2 6 4 42 -11 80 -33 l68 -40
-45 6 c-83 12 -172 66 -155 93 8 14 16 13 37 -3z"/>
<path d="M1740 3175 c0 -9 -9 -15 -25 -15 -16 0 -25 -6 -25 -15 0 -9 9 -15 25
-15 16 0 25 6 25 15 0 9 9 15 25 15 16 0 25 6 25 15 0 9 -9 15 -25 15 -16 0
-25 -6 -25 -15z"/>
<path d="M1800 3145 c0 -8 9 -15 20 -15 11 0 20 7 20 15 0 8 -9 15 -20 15 -11
0 -20 -7 -20 -15z"/>
<path d="M1747 3123 c-13 -12 -7 -21 18 -25 19 -4 25 -1 25 13 0 19 -29 27
-43 12z"/>
<path d="M577 3274 c-3 -4 -2 -14 3 -24 5 -10 7 -20 3 -23 -3 -4 2 -9 11 -13
24 -9 28 -2 15 34 -11 31 -19 38 -32 26z"/>
<path d="M634 3266 c-8 -20 -1 -47 11 -49 6 -1 11 13 13 31 3 32 -14 45 -24
18z"/>
<path d="M530 3226 c0 -16 38 -42 47 -32 7 7 -5 24 -28 36 -15 8 -19 7 -19 -4z"/>
<path d="M588 3169 c-28 -20 -28 -22 -28 -134 0 -90 3 -117 16 -129 8 -9 20
-16 25 -16 5 0 18 -18 29 -40 25 -48 52 -65 80 -50 17 9 30 6 67 -14 55 -31
82 -33 117 -5 25 20 26 24 26 123 0 74 -4 107 -15 123 -8 12 -51 41 -94 65
-44 23 -77 47 -74 53 4 5 2 7 -2 3 -5 -5 -27 3 -51 17 -51 30 -61 30 -96 4z
m52 -8 c0 -5 -7 -11 -15 -15 -15 -5 -20 5 -8 17 9 10 23 9 23 -2z m193 -106
c36 -21 40 -35 9 -35 -14 0 -157 78 -190 103 -10 8 -10 12 0 18 11 7 37 -6
181 -86z m-114 4 l121 -71 0 -104 0 -104 -76 45 c-82 49 -90 51 -97 33 -2 -7
-11 2 -21 20 -9 17 -21 32 -26 32 -5 0 -16 7 -24 16 -12 12 -16 37 -16 110 0
52 4 94 9 94 5 0 63 -32 130 -71z m163 -77 c-14 -11 -18 -10 -20 4 -5 21 20
38 30 21 4 -7 0 -18 -10 -25z m8 -27 c-7 -9 -15 -13 -19 -10 -3 3 1 10 9 15
21 14 24 12 10 -5z"/>
<path d="M624 3014 c-7 -27 10 -54 35 -54 9 0 25 -9 34 -21 10 -11 25 -18 32
-15 8 3 19 -3 25 -14 6 -11 20 -20 30 -20 28 0 28 56 0 65 -11 3 -24 4 -29 1
-5 -3 -11 3 -14 14 -6 24 -36 37 -47 21 -5 -9 -9 -5 -14 12 -8 35 -44 43 -52
11z m42 -32 c-9 -8 -26 10 -26 26 1 15 2 15 15 -2 8 -11 13 -21 11 -24z m58
-18 c4 -9 4 -19 2 -21 -8 -8 -26 8 -26 23 0 19 16 18 24 -2z m64 -50 c-10 -10
-28 6 -28 24 0 15 1 15 17 -1 9 -9 14 -19 11 -23z"/>
<path d="M1132 3145 c2 -14 8 -26 13 -26 6 0 11 12 13 26 2 18 -1 25 -13 25
-12 0 -15 -7 -13 -25z"/>
<path d="M1130 3055 c0 -16 6 -25 15 -25 9 0 15 9 15 25 0 16 -6 25 -15 25 -9
0 -15 -9 -15 -25z"/>
<path d="M1390 3061 c0 -16 41 -61 56 -61 20 0 18 8 -13 41 -28 29 -43 36 -43
20z"/>
<path d="M1136 2993 c-12 -13 -6 -53 9 -53 9 0 15 9 15 24 0 26 -12 40 -24 29z"/>
<path d="M4111 2969 c-30 -16 -60 -34 -68 -40 -22 -19 -16 -67 12 -95 14 -14
25 -30 25 -36 0 -5 7 -7 16 -4 9 4 24 0 34 -9 35 -31 71 -28 146 14 65 37 72
44 76 76 5 41 -9 57 -86 98 -61 34 -88 33 -155 -4z m156 -16 c34 -20 63 -42
63 -48 0 -14 -112 -75 -138 -75 -12 0 -49 16 -83 36 -51 30 -59 38 -48 50 17
16 120 74 133 74 5 0 38 -17 73 -37z m-203 -89 c3 -8 2 -12 -4 -9 -6 3 -10 10
-10 16 0 14 7 11 14 -7z m86 -47 c0 -5 4 -6 9 -2 11 6 26 -13 18 -22 -9 -8
-87 39 -87 53 0 10 8 9 30 -4 16 -9 30 -21 30 -25z m158 32 c-6 -18 -108 -72
-108 -57 0 7 22 25 48 40 52 29 65 33 60 17z"/>
<path d="M4143 2938 c-18 -11 -33 -26 -33 -33 0 -7 19 -23 43 -35 l44 -23 41
23 c23 13 42 30 42 37 0 13 -70 54 -92 52 -7 0 -28 -10 -45 -21z m34 -24 c-8
-9 -47 -13 -47 -5 0 12 44 30 49 19 1 -5 1 -11 -2 -14z m38 -34 c-3 -5 -13
-10 -21 -10 -8 0 -14 5 -14 10 0 6 9 10 21 10 11 0 17 -4 14 -10z"/>
<path d="M1540 2905 c-7 -9 -10 -18 -7 -21 7 -8 47 14 47 26 0 15 -26 12 -40
-5z"/>
<path d="M1134 2896 c-8 -21 3 -49 16 -41 5 3 10 15 10 25 0 25 -18 36 -26 16z"/>
<path d="M1478 2869 c-10 -6 -18 -14 -18 -19 0 -13 21 -12 40 0 22 14 0 32
-22 19z"/>
<path d="M1132 2795 c2 -14 8 -26 13 -26 6 0 11 12 13 26 2 18 -1 25 -13 25
-12 0 -15 -7 -13 -25z"/>
<path d="M1460 2804 c0 -8 32 -33 43 -34 14 0 7 28 -9 34 -20 8 -34 8 -34 0z"/>
<path d="M4014 2777 c-6 -7 -9 -18 -7 -24 6 -16 43 6 43 24 0 16 -22 16 -36 0z"/>
<path d="M1535 2761 c-8 -14 37 -43 49 -31 7 7 3 15 -10 25 -23 17 -31 18 -39
6z"/>
<path d="M4106 2762 c-7 -11 58 -42 90 -42 29 0 84 26 84 40 0 15 -14 12 -49
-7 -30 -18 -33 -18 -102 11 -10 4 -19 3 -23 -2z"/>
<path d="M670 2725 c0 -16 6 -25 15 -25 9 0 15 9 15 25 0 16 -6 25 -15 25 -9
0 -15 -9 -15 -25z"/>
<path d="M3948 2736 c-18 -14 -24 -36 -10 -36 19 0 47 29 37 39 -7 6 -16 5
-27 -3z"/>
<path d="M1094 2726 c-10 -8 -16 -17 -12 -21 8 -8 48 13 48 25 0 14 -13 12
-36 -4z"/>
<path d="M1016 2684 c-27 -20 -8 -37 22 -20 19 10 21 15 10 23 -10 8 -18 8
-32 -3z"/>
<path d="M3865 2687 c-12 -10 -14 -16 -7 -21 14 -8 55 17 45 27 -9 10 -17 9
-38 -6z"/>
<path d="M676 2643 c-4 -10 -4 -14 0 -10 4 4 13 2 20 -4 20 -16 37 -1 20 17
-19 19 -32 18 -40 -3z"/>
<path d="M3794 2646 c-10 -8 -16 -17 -12 -21 11 -11 48 5 48 21 0 18 -11 18
-36 0z"/>
<path d="M934 2636 c-10 -8 -16 -18 -11 -22 9 -10 58 16 51 28 -7 12 -17 10
-40 -6z"/>
<path d="M750 2601 c0 -12 39 -25 48 -16 7 7 -17 25 -35 25 -7 0 -13 -4 -13
-9z"/>
<path d="M868 2596 c-10 -7 -18 -16 -18 -20 0 -10 38 -7 46 5 11 18 -10 29
-28 15z"/>
<path d="M813 2562 c-23 -3 -50 -29 -40 -38 2 -3 21 4 42 14 37 21 37 31 -2
24z"/>
<path d="M713 2507 c-24 -11 -29 -22 -14 -31 5 -3 19 2 32 12 26 22 14 34 -18
19z"/>
<path d="M3876 2511 c-9 -14 22 -73 34 -66 5 3 5 17 -2 33 -16 37 -25 46 -32
33z"/>
<path d="M3936 2504 c-11 -28 -6 -54 9 -54 10 0 15 11 15 35 0 36 -13 47 -24
19z"/>
<path d="M3986 2435 c-96 -53 -150 -108 -141 -145 10 -37 19 -45 114 -101 47
-27 95 -56 105 -62 91 -56 113 -67 130 -66 25 1 105 48 119 70 17 27 -2 90
-37 125 -19 19 -36 47 -39 67 -7 45 -55 121 -88 141 -42 25 -77 19 -163 -29z
m138 16 c9 -14 -50 -34 -75 -26 l-22 7 24 14 c28 15 65 18 73 5z m48 -38 c9
-10 21 -28 27 -40 10 -20 8 -24 -20 -38 -17 -9 -32 -15 -33 -13 -1 2 -14 20
-30 41 -15 21 -26 40 -25 41 12 10 46 25 55 26 6 0 18 -8 26 -17z m-101 -30
c35 -29 68 -94 69 -132 0 -13 11 -32 26 -44 36 -28 58 -81 44 -107 -10 -18
-13 -19 -38 -6 -88 46 -267 159 -264 167 1 6 -3 7 -9 3 -13 -8 -29 13 -29 38
0 11 5 15 14 12 9 -3 15 5 20 27 5 28 9 31 36 27 18 -3 30 0 30 7 0 18 22 35
46 35 12 0 37 -12 55 -27z m191 -140 c25 -22 23 -29 -12 -43 -28 -12 -33 -10
-56 11 l-25 23 23 13 c31 17 48 16 70 -4z m28 -53 c0 -5 -13 -16 -30 -25 -38
-19 -40 -1 -2 19 33 18 32 18 32 6z"/>
<path d="M625 2457 c-12 -10 -14 -16 -7 -21 15 -9 54 12 47 25 -8 12 -18 11
-40 -4z"/>
<path d="M3825 2460 c-8 -12 22 -39 43 -40 19 0 10 20 -15 37 -15 10 -23 11
-28 3z"/>
<path d="M553 2413 c-13 -5 -19 -33 -7 -33 3 0 14 5 25 10 34 19 19 38 -18 23z"/>
<path d="M506 2354 c-9 -25 -7 -34 8 -34 16 0 25 19 18 38 -6 17 -19 15 -26
-4z"/>
<path d="M550 2297 c0 -15 35 -38 44 -30 11 12 6 20 -19 31 -19 9 -25 9 -25
-1z"/>
<path d="M610 2253 c0 -13 22 -33 37 -33 7 0 13 7 13 15 0 8 -4 15 -9 15 -5 0
-16 3 -25 6 -9 3 -16 2 -16 -3z"/>
<path d="M675 2209 c-4 -6 1 -17 11 -24 24 -18 34 -19 34 0 0 19 -36 39 -45
24z"/>
<path d="M740 2156 c0 -16 37 -32 48 -21 7 7 -25 35 -40 35 -4 0 -8 -6 -8 -14z"/>
<path d="M800 2112 c0 -10 41 -35 47 -28 11 11 -7 36 -27 36 -11 0 -20 -3 -20
-8z"/>
<path d="M3996 2095 c-11 -8 -17 -18 -14 -21 11 -10 48 7 48 22 0 18 -10 17
-34 -1z"/>
<path d="M994 2076 c-21 -10 -36 -25 -43 -48 -8 -23 -24 -40 -54 -57 -23 -13
-71 -41 -107 -61 -36 -21 -69 -38 -73 -39 -4 0 -14 -7 -22 -15 -8 -7 -64 -42
-126 -76 -61 -34 -119 -70 -130 -81 -22 -22 -25 -77 -6 -101 6 -8 93 -62 192
-119 197 -113 232 -123 291 -82 43 30 163 95 168 91 2 -2 15 7 28 18 13 12 68
46 123 77 55 30 129 73 165 94 l65 40 0 52 0 52 -145 84 c-80 47 -149 86 -154
88 -5 2 -10 14 -11 28 -2 31 -57 69 -99 69 -17 -1 -45 -7 -62 -14z m69 -13
c-7 -2 -19 -2 -25 0 -7 3 -2 5 12 5 14 0 19 -2 13 -5z m-51 -15 c-24 -24 -12
-33 41 -32 39 1 51 5 49 15 -2 8 -9 17 -15 21 -8 5 -7 8 4 8 23 0 39 -22 33
-46 -4 -16 19 -32 133 -98 189 -109 198 -116 181 -131 -30 -30 -575 -335 -596
-335 -29 0 -392 207 -392 224 0 7 73 54 163 106 396 229 369 211 363 236 -4
16 -1 26 11 33 25 14 40 14 25 -1z m-416 -496 c143 -81 170 -99 162 -108 -8
-7 -301 160 -306 176 -6 16 -7 17 144 -68z m212 -131 c3 -8 -1 -12 -9 -9 -7 2
-15 10 -17 17 -3 8 1 12 9 9 7 -2 15 -10 17 -17z"/>
<path d="M967 1946 c-81 -46 -87 -54 -61 -75 46 -38 293 -171 315 -170 30 1
143 70 147 90 1 8 -12 23 -30 33 -203 118 -275 156 -292 156 -12 0 -47 -16
-79 -34z m100 -33 c3 -7 -11 -20 -31 -29 l-35 -17 25 -13 c28 -15 79 0 66 20
-3 6 -8 19 -9 28 -2 12 29 -2 109 -48 62 -35 116 -68 120 -72 13 -13 -89 -64
-112 -57 -11 3 -20 11 -20 16 0 5 -3 8 -7 7 -5 -2 -58 26 -120 62 l-112 65 42
27 c43 28 77 32 84 11z m0 -49 c-3 -3 -12 -4 -19 -1 -8 3 -5 6 6 6 11 1 17 -2
13 -5z"/>
<path d="M1093 1853 c-38 -26 -26 -35 17 -13 22 11 40 23 40 25 0 11 -36 3
-57 -12z"/>
<path d="M1123 1837 c-29 -13 -29 -23 -2 -38 15 -8 24 -8 32 0 6 6 15 11 21
11 5 0 1 -6 -9 -14 -18 -13 -18 -14 3 -25 15 -8 28 -9 41 -2 10 6 21 7 25 3 4
-3 4 0 1 8 -10 26 -64 51 -85 40 -10 -6 -22 -10 -27 -10 -4 1 3 7 16 14 29 16
15 28 -16 13z"/>
<path d="M840 1830 c0 -5 7 -10 15 -10 8 0 15 5 15 10 0 6 -7 10 -15 10 -8 0
-15 -4 -15 -10z"/>
<path d="M800 1810 c0 -5 7 -10 15 -10 8 0 15 5 15 10 0 6 -7 10 -15 10 -8 0
-15 -4 -15 -10z"/>
<path d="M880 1810 c0 -5 7 -10 16 -10 8 0 12 5 9 10 -3 6 -10 10 -16 10 -5 0
-9 -4 -9 -10z"/>
<path d="M755 1780 c3 -5 12 -7 20 -3 21 7 19 13 -6 13 -11 0 -18 -4 -14 -10z"/>
<path d="M840 1782 c0 -5 7 -9 15 -9 8 0 15 4 15 9 0 4 -7 8 -15 8 -8 0 -15
-4 -15 -8z"/>
<path d="M920 1786 c0 -2 7 -6 15 -10 8 -3 15 -1 15 4 0 6 -7 10 -15 10 -8 0
-15 -2 -15 -4z"/>
<path d="M800 1760 c0 -5 7 -10 15 -10 8 0 15 5 15 10 0 6 -7 10 -15 10 -8 0
-15 -4 -15 -10z"/>
<path d="M880 1760 c0 -5 7 -10 15 -10 8 0 15 5 15 10 0 6 -7 10 -15 10 -8 0
-15 -4 -15 -10z"/>
<path d="M970 1760 c0 -5 5 -10 10 -10 6 0 10 5 10 10 0 6 -4 10 -10 10 -5 0
-10 -4 -10 -10z"/>
<path d="M848 1733 c7 -3 16 -2 19 1 4 3 -2 6 -13 5 -11 0 -14 -3 -6 -6z"/>
<path d="M928 1733 c7 -3 16 -2 19 1 4 3 -2 6 -13 5 -11 0 -14 -3 -6 -6z"/>
<path d="M1008 1733 c6 -2 18 -2 25 0 6 3 1 5 -13 5 -14 0 -19 -2 -12 -5z"/>
<path d="M678 1704 c-52 -27 -51 -96 1 -131 41 -28 93 -30 141 -5 58 29 59
109 0 139 -34 17 -109 16 -142 -3z m127 -14 c65 -25 28 -80 -55 -80 -32 0 -56
6 -71 19 l-23 18 27 27 c28 28 74 34 122 16z"/>
<path d="M880 1710 c0 -5 7 -10 15 -10 8 0 15 5 15 10 0 6 -7 10 -15 10 -8 0
-15 -4 -15 -10z"/>
<path d="M970 1710 c0 -5 5 -10 10 -10 6 0 10 5 10 10 0 6 -4 10 -10 10 -5 0
-10 -4 -10 -10z"/>
<path d="M1050 1710 c0 -5 7 -10 15 -10 8 0 15 5 15 10 0 6 -7 10 -15 10 -8 0
-15 -4 -15 -10z"/>
<path d="M1020 1690 c-13 -8 -12 -10 3 -10 9 0 17 5 17 10 0 12 -1 12 -20 0z"/>
<path d="M1090 1688 c0 -4 7 -8 15 -8 8 0 15 4 15 8 0 5 -7 9 -15 9 -8 0 -15
-4 -15 -9z"/>
<path d="M928 1683 c7 -3 16 -2 19 1 4 3 -2 6 -13 5 -11 0 -14 -3 -6 -6z"/>
<path d="M970 1660 c0 -5 7 -7 15 -4 8 4 15 8 15 10 0 2 -7 4 -15 4 -8 0 -15
-4 -15 -10z"/>
<path d="M1050 1660 c0 -5 7 -7 15 -4 8 4 15 8 15 10 0 2 -7 4 -15 4 -8 0 -15
-4 -15 -10z"/>
<path d="M1010 1640 c0 -5 7 -10 15 -10 8 0 15 5 15 10 0 6 -7 10 -15 10 -8 0
-15 -4 -15 -10z"/>
<path d="M870 2066 c0 -16 27 -29 42 -20 7 5 4 12 -7 21 -24 17 -35 17 -35 -1z"/>
<path d="M3927 2056 c-27 -21 -22 -38 8 -24 14 6 25 15 25 19 0 15 -15 17 -33
5z"/>
<path d="M3866 2005 c-6 -18 2 -45 15 -45 12 0 12 47 0 54 -5 3 -11 -1 -15 -9z"/>
<path d="M4170 1977 c-19 -7 -33 -16 -30 -22 3 -5 10 -8 15 -6 30 13 95 11
123 -3 37 -19 54 -4 20 17 -34 22 -88 27 -128 14z"/>
<path d="M3910 1935 c0 -8 4 -15 9 -15 5 0 16 -3 25 -6 10 -4 16 -1 16 9 0 14
-20 27 -41 27 -5 0 -9 -7 -9 -15z"/>
<path d="M4150 1926 c-14 -7 -99 -57 -190 -111 -175 -104 -375 -221 -450 -263
-54 -31 -69 -49 -70 -83 0 -33 18 -49 116 -102 172 -95 199 -110 209 -118 5
-5 31 -9 58 -9 43 0 66 9 166 67 64 36 122 66 129 66 6 0 10 3 7 5 -3 3 41 32
97 65 385 222 400 234 382 284 -7 20 -49 49 -174 119 -141 81 -171 94 -210 94
-25 0 -56 -6 -70 -14z m106 -7 c43 -16 312 -170 325 -185 17 -21 1 -35 -112
-99 -54 -32 -96 -61 -93 -66 10 -16 -7 -31 -21 -19 -16 13 -36 5 -31 -13 1 -7
1 -9 -1 -4 -3 4 -9 7 -14 7 -6 0 -8 -4 -5 -9 3 -5 0 -8 -7 -7 -19 2 -425 -237
-423 -249 2 -5 1 -7 -1 -2 -3 4 -21 7 -42 7 -26 0 -65 16 -136 56 -179 101
-235 135 -235 143 0 17 29 41 100 81 41 24 190 111 330 193 222 131 304 175
332 177 4 0 19 -5 34 -11z m-608 -584 c-3 -3 -9 2 -12 12 -6 14 -5 15 5 6 7
-7 10 -15 7 -18z"/>
<path d="M4202 1912 c-13 -2 -128 -65 -255 -140 -128 -74 -275 -160 -327 -190
-110 -63 -132 -80 -128 -100 4 -21 307 -192 338 -192 15 0 89 36 166 81 490
286 565 332 562 347 -3 17 -68 60 -68 45 0 -6 11 -15 25 -21 14 -6 25 -16 25
-21 0 -8 -80 -58 -232 -146 -10 -5 -66 -39 -125 -74 -59 -35 -122 -72 -140
-82 -17 -10 -50 -29 -72 -43 -22 -15 -44 -26 -48 -26 -5 0 -19 -9 -33 -20 -43
-33 -76 -25 -210 52 -69 39 -126 75 -128 80 -2 4 -13 8 -24 8 -52 0 4 43 232
177 135 79 280 164 323 189 43 25 90 51 105 56 37 14 83 2 89 -23 5 -18 110
-87 167 -109 48 -18 27 -1 -56 44 -48 26 -87 55 -93 67 -11 26 -59 47 -93 41z"/>
<path d="M4345 1850 c8 -14 86 -53 92 -47 5 5 -78 57 -91 57 -4 0 -4 -5 -1
-10z"/>
<path d="M4110 1704 l-35 -25 31 3 c17 1 43 -6 58 -16 15 -9 35 -16 44 -13 12
2 6 10 -22 27 -22 13 -34 26 -28 28 12 4 7 22 -6 22 -4 -1 -23 -12 -42 -26z"/>
<path d="M4019 1651 c-23 -18 -23 -20 -6 -39 25 -27 66 -33 105 -15 38 18 41
36 10 57 -30 22 -81 20 -109 -3z m90 -15 c19 -23 -20 -40 -53 -24 -28 12 -33
24 -13 31 24 10 55 7 66 -7z"/>
<path d="M3956 1612 c-2 -4 17 -20 44 -35 61 -34 76 -18 16 17 -49 29 -53 30
-60 18z"/>
<path d="M4355 1560 c3 -5 8 -10 11 -10 2 0 4 5 4 10 0 6 -5 10 -11 10 -5 0
-7 -4 -4 -10z"/>
<path d="M3740 1513 c-19 -9 -39 -17 -45 -17 -17 -2 -17 -52 0 -66 21 -17 123
-24 158 -11 28 11 48 46 39 69 -7 19 -57 42 -89 42 -15 -1 -44 -8 -63 -17z
m121 -13 c23 -13 24 -28 2 -52 -22 -24 -93 -24 -123 0 l-23 19 21 21 c24 24
88 30 123 12z"/>
<path d="M3774 1479 c-12 -20 12 -32 43 -21 25 9 25 11 6 11 -13 1 -23 6 -23
11 0 13 -17 13 -26 -1z"/>
<path d="M1360 1900 c0 -13 38 -32 50 -25 6 3 10 0 10 -7 1 -7 15 -22 33 -33
22 -14 33 -29 35 -50 5 -43 22 -56 22 -16 0 47 -14 66 -75 106 -57 36 -75 42
-75 25z"/>
<path d="M3990 1896 c0 -16 37 -32 48 -21 7 7 -25 35 -40 35 -4 0 -8 -6 -8
-14z"/>
<path d="M597 1834 c-15 -8 -25 -19 -22 -25 7 -10 65 20 65 33 0 11 -11 9 -43
-8z"/>
<path d="M483 1768 c-69 -40 -93 -68 -93 -108 0 -31 17 -23 24 10 4 23 20 39
66 69 34 22 66 41 72 43 6 2 9 9 7 15 -2 8 -31 -4 -76 -29z"/>
<path d="M3356 1723 c-11 -11 -6 -20 19 -31 26 -12 43 -1 22 15 -23 18 -34 22
-41 16z"/>
<path d="M3432 1668 c6 -16 36 -34 44 -25 9 9 -15 37 -33 37 -8 0 -13 -5 -11
-12z"/>
<path d="M3330 1650 c0 -12 40 -33 48 -25 4 4 -2 13 -12 21 -23 16 -36 18 -36
4z"/>
<path d="M3505 1631 c-3 -6 3 -15 14 -20 24 -14 31 -14 31 -1 0 14 -38 32 -45
21z"/>
<path d="M1585 1589 c-16 -11 -63 -38 -103 -61 l-73 -40 3 -196 3 -195 30 -21
c16 -12 42 -33 56 -48 33 -34 405 -248 430 -248 10 0 34 -7 52 -16 l34 -16
102 58 c57 32 107 67 112 77 6 10 9 91 7 192 -3 199 0 190 -107 253 -244 144
-491 282 -502 281 -8 0 -27 -9 -44 -20z m-6 -60 c-89 -52 -95 -54 -103 -40 -8
12 154 100 172 94 8 -4 -19 -25 -69 -54z m345 -105 c130 -75 236 -139 236
-143 0 -4 -19 -18 -42 -31 -23 -13 -37 -25 -30 -28 7 -2 32 8 56 22 32 19 46
22 54 14 21 -21 13 -32 -48 -67 -33 -19 -60 -39 -60 -43 0 -12 7 -10 48 15 73
47 82 50 82 29 0 -12 -26 -33 -81 -65 -44 -26 -84 -47 -90 -47 -15 0 -10 30 6
36 8 4 15 10 15 16 0 5 -5 6 -11 2 -6 -3 -21 5 -33 19 -11 15 -120 83 -241
153 -121 69 -224 129 -228 133 -4 5 6 14 22 21 17 7 31 16 31 21 0 12 -11 11
-40 -6 -28 -16 -70 -20 -54 -6 15 15 148 90 160 90 6 1 118 -60 248 -135z
m-436 29 c15 -10 29 -20 32 -23 3 -3 10 -6 15 -7 16 -2 189 -105 196 -116 3
-5 9 -8 13 -7 16 3 136 -72 130 -82 -4 -7 -2 -8 4 -4 7 4 33 -5 59 -20 88 -50
83 -35 83 -236 0 -98 -4 -178 -9 -178 -5 0 -76 39 -157 86 -82 47 -183 106
-224 129 -155 90 -182 108 -191 132 -10 28 -13 326 -2 336 10 11 22 8 51 -10z
m651 -387 c-2 -2 -15 -9 -29 -15 -24 -11 -24 -11 -6 3 16 13 49 24 35 12z
m-59 -31 c0 -2 -10 -9 -22 -15 -22 -11 -22 -10 -4 4 21 17 26 19 26 11z m120
-130 c0 -2 -13 -11 -30 -20 -38 -19 -40 -11 -2 9 31 17 32 18 32 11z m-70 -40
c0 -2 -10 -9 -22 -15 -22 -11 -22 -10 -4 4 21 17 26 19 26 11z"/>
<path d="M1666 1487 c-12 -9 -17 -23 -14 -42 3 -25 16 -37 93 -82 121 -71 185
-72 185 -2 0 24 -12 34 -99 83 -101 57 -134 66 -165 43z m80 -16 c5 -5 36 -24
69 -42 94 -50 109 -69 58 -69 -32 0 -205 98 -197 111 7 12 57 12 70 0z"/>
<path d="M1936 1321 c-24 -27 -17 -51 24 -79 52 -35 110 -15 110 37 0 52 -98
82 -134 42z m95 -20 l24 -19 -28 -7 c-30 -8 -82 18 -72 35 10 16 51 11 76 -9z"/>
<path d="M1460 1275 l0 -144 43 -29 c23 -16 89 -55 147 -87 58 -32 139 -79
181 -104 113 -69 148 -86 159 -75 12 12 15 267 4 286 -5 8 -58 43 -119 77
-326 188 -386 221 -400 221 -13 0 -15 -23 -15 -145z m275 -25 c110 -62 210
-122 223 -133 20 -19 22 -29 22 -119 0 -54 -3 -98 -8 -98 -4 0 -44 21 -89 48
-45 26 -145 83 -222 127 l-140 80 0 108 c0 59 3 106 7 104 4 -2 97 -55 207
-117z"/>
<path d="M1556 1312 c-5 -8 220 -142 237 -142 23 0 -3 22 -70 60 -43 24 -94
54 -113 67 -38 25 -46 27 -54 15z"/>
<path d="M1557 1264 c-3 -4 4 -15 16 -26 l22 -19 -22 6 c-20 6 -23 3 -23 -23
0 -21 8 -35 25 -46 14 -9 25 -14 25 -11 0 3 10 -3 22 -15 12 -11 32 -20 45
-20 13 0 23 -4 23 -10 0 -12 89 -70 108 -70 8 0 12 16 12 49 l0 49 -57 32
c-35 20 -59 28 -61 21 -6 -18 -22 -13 -22 8 0 11 -19 30 -51 50 -56 34 -53 33
-62 25z m50 -90 c-7 -7 -37 7 -37 17 0 6 9 5 21 -1 11 -7 19 -14 16 -16z m43
-5 c0 -17 -4 -28 -10 -24 -5 3 -10 17 -10 31 0 13 5 24 10 24 6 0 10 -14 10
-31z m80 -50 c0 -18 -4 -28 -10 -24 -5 3 -10 20 -10 36 0 18 4 28 10 24 6 -3
10 -20 10 -36z m47 -36 c-3 -10 -5 -4 -5 12 0 17 2 24 5 18 2 -7 2 -21 0 -30z"/>
<path d="M1830 1150 c0 -5 22 -21 50 -35 55 -28 60 -29 60 -15 0 5 -22 21 -50
35 -55 28 -60 29 -60 15z"/>
<path d="M1842 1098 c-27 -27 -6 -95 38 -118 39 -21 69 16 51 61 -22 53 -66
80 -89 57z m45 -23 c24 -17 39 -63 25 -77 -24 -24 -77 43 -65 80 6 16 14 15
40 -3z"/>
<path d="M1872 1050 c-10 -17 -10 -20 3 -20 8 0 15 9 15 20 0 11 -1 20 -3 20
-1 0 -8 -9 -15 -20z"/>
<path d="M3353 1575 c-18 -19 -16 -25 6 -25 16 0 31 18 31 36 0 10 -26 2 -37
-11z"/>
<path d="M1780 1551 c0 -8 151 -101 163 -101 2 0 4 7 4 15 0 8 -4 15 -8 15 -5
0 -37 18 -71 40 -62 39 -88 48 -88 31z"/>
<path d="M3287 1536 c-27 -21 -22 -38 8 -24 14 6 25 15 25 19 0 15 -15 17 -33
5z"/>
<path d="M3212 1494 c-17 -12 -21 -19 -13 -27 8 -8 16 -7 27 5 25 25 14 42
-14 22z"/>
<path d="M1132 1478 c6 -16 36 -34 44 -25 9 9 -15 37 -33 37 -8 0 -13 -5 -11
-12z"/>
<path d="M3130 1445 c-7 -9 -10 -18 -7 -21 9 -9 48 16 42 27 -9 13 -21 11 -35
-6z"/>
<path d="M1205 1441 c-7 -12 35 -42 47 -35 5 3 2 15 -8 25 -19 21 -30 24 -39
10z"/>
<path d="M2204 1426 c-10 -8 -16 -17 -12 -21 11 -11 48 5 48 21 0 18 -11 18
-36 0z"/>
<path d="M2270 1430 c0 -5 4 -10 9 -10 5 0 16 -3 25 -6 11 -4 16 -1 16 10 0
10 -9 16 -25 16 -14 0 -25 -4 -25 -10z"/>
<path d="M3045 1400 c-12 -19 5 -30 25 -17 11 6 20 15 20 19 0 12 -38 10 -45
-2z"/>
<path d="M1278 1394 c-8 -7 3 -54 13 -54 12 0 12 47 0 54 -4 3 -10 3 -13 0z"/>
<path d="M2135 1386 c-10 -7 -16 -18 -14 -25 3 -9 11 -7 28 7 27 21 14 39 -14
18z"/>
<path d="M2350 1392 c0 -4 9 -13 20 -19 20 -13 37 -2 25 17 -7 12 -45 14 -45
2z"/>
<path d="M2971 1357 c-6 -8 -8 -17 -5 -20 9 -8 44 11 44 23 0 15 -26 12 -39
-3z"/>
<path d="M2426 1351 c-6 -10 39 -32 48 -24 8 9 -14 33 -30 33 -7 0 -15 -4 -18
-9z"/>
<path d="M3168 1323 c-56 -34 -58 -37 -58 -78 0 -42 2 -44 56 -76 88 -50 108
-51 184 -8 52 29 66 42 68 64 6 51 -5 69 -66 103 -76 41 -111 40 -184 -5z
m150 3 c26 -13 58 -33 71 -43 l25 -20 -66 -37 c-36 -20 -74 -36 -84 -36 -26 0
-136 69 -131 83 3 11 115 77 130 77 4 0 29 -11 55 -24z m-181 -108 c-3 -8 -6
-5 -6 6 -1 11 2 17 5 13 3 -3 4 -12 1 -19z m98 -41 c32 -24 9 -31 -23 -8 -17
12 -35 21 -41 21 -6 0 -11 7 -11 15 0 14 3 14 28 1 15 -8 36 -21 47 -29z m145
34 c0 -11 -100 -64 -107 -57 -7 7 7 27 15 22 4 -2 23 7 42 20 38 25 50 29 50
15z"/>
<path d="M3212 1300 c-40 -24 -38 -36 9 -66 l35 -22 47 20 c26 11 47 26 47 33
0 17 -61 55 -86 55 -11 0 -34 -9 -52 -20z m48 -8 c0 -11 -41 -34 -48 -27 -4 4
2 13 12 21 22 15 36 18 36 6z m23 -53 c-8 -8 -16 -8 -30 0 -16 9 -14 10 12 11
21 0 26 -3 18 -11z"/>
<path d="M1228 1326 c-18 -13 -25 -36 -10 -36 17 1 45 31 36 39 -5 6 -16 5
-26 -3z"/>
<path d="M3991 1283 c-113 -68 -169 -78 -244 -45 -56 25 -73 11 -20 -17 37
-19 78 -25 138 -22 28 1 227 110 240 131 14 23 -26 6 -114 -47z"/>
<path d="M2903 1323 c-17 -6 -17 -33 0 -33 14 0 37 20 37 32 0 9 -18 9 -37 1z"/>
<path d="M978 1284 c-71 -36 -87 -59 -74 -108 7 -27 119 -96 156 -96 12 0 53
17 91 38 65 35 69 39 69 73 0 23 -7 42 -20 54 -12 10 -19 24 -16 31 3 7 -4 14
-15 17 -10 3 -17 1 -13 -4 8 -14 -3 -11 -46 11 -50 26 -52 25 -132 -16z m162
-20 c34 -20 60 -40 58 -46 -2 -5 -34 -26 -70 -46 l-67 -37 -56 30 c-31 17 -63
37 -71 47 -16 17 -12 20 91 76 32 18 50 14 115 -24z m36 -103 c-6 -8 -93 -61
-102 -61 -2 0 -4 6 -4 13 0 6 24 24 53 39 52 26 65 28 53 9z m-171 -13 c24
-13 45 -29 45 -35 0 -7 -2 -13 -5 -13 -10 0 -95 55 -95 62 0 12 6 10 55 -14z"/>
<path d="M1003 1249 c-39 -25 -34 -41 18 -64 39 -18 41 -18 85 3 24 12 44 26
44 32 0 16 -62 50 -90 50 -14 0 -39 -10 -57 -21z m47 -9 c0 -13 -41 -30 -54
-22 -5 2 2 11 15 18 29 16 39 17 39 4z m35 -40 c4 -6 -5 -10 -19 -10 -14 0
-26 5 -26 10 0 6 9 10 19 10 11 0 23 -4 26 -10z"/>
<path d="M2500 1312 c0 -12 23 -32 37 -32 18 0 16 27 -3 34 -21 8 -34 8 -34
-2z"/>
<path d="M2833 1277 c-25 -11 -31 -27 -10 -27 19 0 40 16 36 28 -3 6 -12 6
-26 -1z"/>
<path d="M2582 1263 c2 -10 13 -19 26 -21 26 -4 28 6 5 24 -25 18 -35 17 -31
-3z"/>
<path d="M2753 1233 c-7 -2 -13 -11 -13 -19 0 -11 5 -11 25 -2 39 18 28 38
-12 21z"/>
<path d="M2650 1221 c0 -11 39 -25 47 -18 3 3 2 10 -2 16 -8 13 -45 15 -45 2z"/>
<path d="M3306 1118 c-37 -19 -41 -19 -73 -4 -37 18 -53 20 -53 8 0 -14 57
-42 85 -42 35 0 85 27 85 45 0 18 4 19 -44 -7z"/>
<path d="M975 1080 c-8 -13 36 -40 76 -46 35 -5 99 25 99 46 0 14 -5 13 -50
-10 l-40 -20 -39 20 c-23 11 -42 16 -46 10z"/>
</g>
</svg>
